<?xml version="1.0" standalone="no"?>
<!DOCTYPE svg PUBLIC "-//W3C//DTD SVG 20010904//EN"
 "http://www.w3.org/TR/2001/REC-SVG-20010904/DTD/svg10.dtd">
<svg version="1.0" xmlns="http://www.w3.org/2000/svg"
 width="1021.000000pt" height="720.000000pt" viewBox="0 0 1021.000000 720.000000"
 preserveAspectRatio="xMidYMid meet">
<metadata>
Created by potrace 1.16, written by Peter Selinger 2001-2019
</metadata>
<g transform="translate(0.000000,720.000000) scale(0.100000,-0.100000)"
fill="#000000" stroke="none">
<path d="M0 3600 l0 -3600 5105 0 5105 0 0 3600 0 3600 -5105 0 -5105 0 0
-3600z m2560 3379 c0 -12 -7 -19 -19 -19 -26 0 -36 17 -21 35 15 18 40 8 40
-16z m-2090 -54 c10 -12 10 -18 0 -31 -12 -13 -15 -13 -28 0 -15 15 -10 46 6
46 5 0 15 -7 22 -15z m975 -39 c100 -49 176 -129 220 -231 75 -173 77 -180 53
-159 -37 31 -58 53 -58 60 0 4 11 -3 25 -16 14 -13 25 -21 25 -18 0 26 -80
168 -115 205 -25 26 -45 50 -45 54 0 13 -61 51 -103 65 -33 10 -37 13 -17 14
22 1 19 4 -20 25 -53 29 -94 31 -152 8 -50 -19 -142 -89 -156 -118 -15 -31
-37 -109 -34 -121 1 -6 -5 -24 -13 -40 -8 -16 -15 -24 -15 -19 0 6 -7 1 -15
-9 -9 -12 -15 -44 -16 -80 -1 -46 -3 -55 -9 -36 l-8 25 -2 -25 c-2 -19 -4 -20
-7 -7 -4 15 -7 16 -21 5 -13 -11 -15 -10 -9 5 4 10 16 50 28 90 45 147 109
248 193 302 105 67 168 71 271 21z m5900 -41 c0 -28 -29 -25 -33 3 -3 19 0 23
15 20 10 -2 18 -12 18 -23z m-5301 0 c3 -8 1 -15 -4 -15 -6 0 -10 7 -10 15 0
8 2 15 4 15 2 0 6 -7 10 -15z m5581 -24 c-3 -6 -11 -11 -16 -11 -5 0 -4 6 3
14 14 16 24 13 13 -3z m-6145 -21 c0 -5 -7 -7 -15 -4 -8 4 -15 8 -15 10 0 2 7
4 15 4 8 0 15 -4 15 -10z m-350 -35 c-7 -8 -16 -12 -21 -9 -13 8 -1 24 18 24
13 0 13 -3 3 -15z m7931 -5 c40 -6 86 -8 100 -5 18 4 32 0 44 -12 22 -21 62
-43 81 -43 7 0 16 -5 19 -10 4 -7 -3 -8 -22 -4 -25 7 -27 6 -14 -9 12 -15 10
-20 -11 -41 -16 -16 -29 -22 -37 -16 -11 6 -9 10 8 19 29 16 26 27 -11 46 -37
18 -86 12 -105 -14 -6 -9 -14 -13 -17 -10 -3 3 3 15 15 27 23 25 16 46 -12 39
-10 -3 -20 0 -21 5 -2 6 -33 12 -68 14 -82 6 -100 11 -80 25 8 5 24 7 36 4 12
-2 54 -9 95 -15z m-240 -4 c-9 -11 -5 -16 19 -26 17 -7 28 -15 24 -19 -8 -8
-28 -8 -34 0 -3 4 -20 10 -37 14 -26 5 -33 3 -33 -9 0 -9 -12 -18 -27 -22 -16
-4 -34 -13 -40 -22 -9 -11 -13 -12 -13 -3 0 9 -9 12 -25 9 -14 -3 -25 -2 -25
2 0 14 -45 16 -75 4 -17 -7 -42 -13 -57 -14 -35 0 -78 -20 -78 -36 0 -7 -8
-10 -20 -7 -11 3 -20 0 -20 -6 0 -6 -9 -11 -19 -11 -20 0 -31 -18 -31 -51 0
-20 -40 -36 -60 -24 -7 4 -14 -2 -17 -14 -5 -21 -33 -30 -33 -11 0 19 -17 10
-28 -14 -8 -18 -8 -26 0 -28 6 -2 8 -10 4 -16 -4 -7 -16 -10 -26 -7 -11 3 -20
0 -24 -10 -3 -8 -13 -15 -22 -15 -17 0 -49 -34 -74 -81 -8 -15 -28 -44 -44
-64 -26 -32 -35 -66 -26 -100 6 -24 -1 -65 -11 -65 -6 0 -8 7 -5 16 4 11 2 15
-8 11 -12 -5 -14 6 -11 56 2 54 1 59 -11 42 -8 -10 -14 -14 -14 -7 0 7 9 17
21 24 26 16 92 108 92 127 0 18 103 122 167 171 25 18 50 38 55 44 37 40 305
146 368 146 25 0 28 -2 17 -15 -21 -26 -5 -27 44 -4 31 15 42 26 33 31 -8 5
-7 8 6 8 9 0 17 -4 17 -10 0 -5 14 -10 30 -10 20 0 30 5 30 15 0 8 7 15 16 15
13 0 14 -3 5 -14z m89 0 c0 -9 -8 -12 -25 -8 -37 7 -41 22 -6 22 20 0 31 -5
31 -14z m-7364 -12 c18 -14 18 -14 -6 -3 -31 14 -36 19 -24 19 6 0 19 -7 30
-16z m942 -12 c5 -30 -24 -39 -49 -16 -20 18 -20 18 3 31 30 16 42 12 46 -15z
m5712 -3 c-7 -11 -9 -27 -6 -35 3 -8 0 -15 -7 -15 -7 -1 -26 -3 -44 -5 l-31
-2 13 31 c10 24 21 34 47 38 18 4 34 7 36 8 1 0 -2 -8 -8 -20z m-4024 -28 c7
-1 19 -23 27 -49 9 -26 19 -55 22 -64 4 -11 -3 -25 -19 -39 -14 -13 -26 -30
-26 -40 0 -39 -40 -48 -211 -50 -104 -1 -174 2 -192 10 l-28 11 2 -52 c2 -29
9 -59 16 -66 9 -9 60 -13 184 -15 154 -3 172 -5 181 -21 11 -20 13 -79 3 -137
-8 -44 -25 -51 -145 -55 -41 -2 -82 -3 -90 -4 -8 0 -45 2 -82 6 l-67 7 3 -67
c2 -37 6 -69 8 -72 3 -2 73 -6 157 -8 107 -3 167 -1 203 9 28 7 58 11 65 8 20
-8 23 -115 3 -121 -5 -2 -10 -21 -10 -42 0 -28 -5 -40 -18 -44 -9 -3 -132 -6
-272 -5 -140 0 -276 0 -303 0 l-47 1 2 435 3 435 50 17 c44 16 83 18 310 16
143 -2 265 -3 271 -4z m-926 -37 c19 -18 51 -40 71 -48 37 -16 58 -50 64 -106
1 -14 6 -35 10 -47 5 -16 2 -23 -14 -28 -12 -3 -21 -11 -21 -16 0 -5 -9 -9
-19 -9 -11 0 -26 -6 -34 -14 -8 -8 -39 -16 -73 -17 l-59 -3 -22 40 c-27 49
-68 65 -124 50 -28 -7 -48 -7 -72 2 -48 17 -107 16 -107 -3 0 -8 -15 -25 -34
-37 l-34 -22 4 -161 c1 -88 3 -172 3 -186 1 -14 12 -36 25 -48 21 -20 30 -22
62 -15 21 6 74 5 126 0 l89 -9 29 28 c23 22 30 38 30 66 l0 37 -67 7 c-38 3
-77 7 -88 8 -18 2 -20 9 -20 79 1 43 4 80 7 84 4 3 83 9 176 12 l170 5 14 -24
c13 -20 14 -52 9 -182 l-7 -158 -32 -32 c-17 -18 -53 -54 -79 -80 l-47 -49
-162 1 c-89 0 -192 5 -230 11 -65 11 -72 15 -141 78 l-72 67 3 284 4 284 82
82 c45 46 96 87 114 93 17 5 121 10 231 10 l200 -1 35 -33z m1355 22 c37 -26
93 -120 106 -178 6 -32 16 -55 21 -52 4 3 8 0 8 -7 0 -22 59 -137 81 -158 l21
-20 28 57 c65 133 99 209 105 239 3 17 13 37 21 44 8 6 14 17 14 24 0 35 42
48 201 61 l76 6 11 -28 c9 -22 9 -48 1 -104 -6 -41 -13 -228 -16 -415 -2 -187
-7 -343 -12 -348 -9 -9 -128 -11 -163 -2 l-28 7 0 229 c0 126 -4 229 -9 229
-4 0 -39 -60 -76 -132 -98 -193 -94 -188 -170 -188 -64 0 -65 0 -85 38 -11 20
-32 57 -46 82 -14 25 -47 87 -73 139 l-48 93 -5 -241 c-3 -133 -7 -244 -10
-247 -13 -13 -113 -21 -149 -11 l-39 9 0 434 0 434 53 1 c85 2 106 5 113 12
12 12 48 8 69 -7z m1088 2 c15 -7 37 -32 49 -55 13 -24 26 -43 30 -43 5 0 8
-8 8 -18 0 -19 28 -83 40 -92 4 -3 10 -20 13 -38 4 -18 14 -40 22 -48 8 -9 15
-27 15 -42 0 -20 3 -23 9 -13 7 11 10 9 13 -10 6 -44 40 -22 73 46 17 36 55
150 55 165 0 10 3 20 8 22 10 4 82 100 82 109 0 16 196 33 206 18 3 -5 14 -9
25 -9 19 0 19 -11 19 -434 0 -298 -3 -437 -11 -441 -6 -4 -50 -4 -98 0 l-89 7
6 107 c5 122 -6 367 -17 354 -4 -4 -18 -33 -30 -63 -40 -99 -144 -271 -159
-265 -7 3 -38 5 -68 5 l-54 0 -24 54 c-13 30 -32 63 -43 73 -16 18 -37 57 -88
168 l-19 40 -8 -65 c-4 -36 -7 -143 -5 -238 2 -95 -1 -176 -6 -179 -12 -7 -85
-7 -144 2 l-53 7 0 358 c0 309 -2 362 -16 387 -15 26 -14 31 6 76 16 35 26 47
43 47 12 0 29 5 37 10 22 14 141 12 173 -2z m1362 -2 c14 -9 30 -40 43 -83 12
-38 30 -78 40 -89 10 -11 22 -37 25 -59 4 -21 13 -43 22 -47 8 -5 15 -20 15
-34 0 -14 6 -35 14 -47 8 -12 19 -40 25 -62 13 -54 29 -100 56 -161 13 -28 26
-73 30 -100 3 -27 10 -58 15 -69 5 -11 16 -42 24 -70 16 -49 16 -50 -6 -68
-15 -11 -32 -15 -48 -11 -14 3 -55 10 -92 16 -46 7 -68 15 -68 25 0 7 -8 41
-17 74 l-17 61 -65 -7 c-69 -7 -103 -7 -210 -4 -73 2 -80 -3 -109 -85 -17 -50
-46 -77 -79 -77 -33 1 -154 20 -164 27 -7 4 -7 10 0 18 21 25 161 421 161 454
0 10 7 28 16 40 8 12 13 26 10 30 -3 5 1 20 8 34 7 14 16 41 20 61 26 141 84
219 171 234 87 15 156 14 180 -1z m1835 4 c0 -5 -5 -10 -11 -10 -5 0 -7 5 -4
10 3 6 8 10 11 10 2 0 4 -4 4 -10z m-7270 -31 c0 -6 -4 -7 -10 -4 -5 3 -10 11
-10 16 0 6 5 7 10 4 6 -3 10 -11 10 -16z m7194 -4 c-4 -8 -10 -12 -15 -9 -11
6 -2 24 11 24 5 0 7 -7 4 -15z m552 -1 c17 -14 17 -15 1 -10 -10 3 -23 6 -28
6 -5 0 -9 5 -9 10 0 14 13 12 36 -6z m-9067 -27 c0 -21 -1 -21 -9 -2 -5 12 -9
14 -9 6 -1 -8 -4 -12 -7 -8 -10 10 5 39 16 32 5 -3 10 -16 9 -28z m2064 -1 c8
-19 -15 -37 -32 -26 -17 10 -7 40 13 40 7 0 16 -6 19 -14z m7092 -18 c30 -14
82 -57 185 -155 41 -39 80 -72 85 -72 6 -1 13 -12 16 -25 4 -14 17 -43 30 -65
12 -22 19 -44 16 -48 -10 -9 -37 29 -32 44 2 7 0 15 -4 18 -5 2 -12 -5 -16
-18 l-8 -22 -4 23 c-2 12 -9 22 -14 22 -5 0 -9 7 -9 15 0 9 -7 18 -15 21 -8 4
-12 10 -10 15 9 13 -24 69 -40 69 -8 0 -15 -6 -15 -12 0 -7 -6 -5 -12 6 -6 10
-33 42 -61 70 -29 30 -44 40 -34 24 21 -33 21 -38 3 -38 -8 0 -17 7 -20 16 -4
9 -9 14 -13 10 -12 -11 -51 34 -46 54 3 10 0 21 -6 24 -11 7 -16 36 -6 36 2 0
16 -5 30 -12z m-138 -11 c10 -11 -30 -8 -47 3 -11 7 -8 8 13 6 15 -1 30 -6 34
-9z m-8507 -3 c0 -15 -22 -44 -31 -39 -18 12 -10 45 11 45 11 0 20 -3 20 -6z
m6627 -16 c-3 -8 -6 -5 -6 6 -1 11 2 17 5 13 3 -3 4 -12 1 -19z m1040 0 c-3
-8 -6 -5 -6 6 -1 11 2 17 5 13 3 -3 4 -12 1 -19z m-6197 -28 c0 -5 -2 -10 -4
-10 -3 0 -8 5 -11 10 -3 6 -1 10 4 10 6 0 11 -4 11 -10z m-1605 -20 c8 -24 -1
-40 -21 -40 -15 0 -18 18 -8 44 8 22 21 20 29 -4z m7735 10 c0 -5 -5 -10 -11
-10 -5 0 -7 5 -4 10 3 6 8 10 11 10 2 0 4 -4 4 -10z m-6800 -15 c0 -12 -19
-12 -23 0 -4 9 -1 12 9 8 7 -3 14 -7 14 -8z m6383 0 c-3 -9 -8 -14 -10 -11 -3
3 -2 9 2 15 9 16 15 13 8 -4z m-7680 -18 c3 -7 -2 -22 -10 -32 -12 -17 -15
-18 -23 -5 -16 25 -12 50 9 50 10 0 21 -6 24 -13z m1340 2 c12 -7 38 -25 57
-41 19 -16 41 -33 48 -39 6 -5 12 -16 12 -23 0 -8 -19 4 -42 25 -24 22 -52 42
-63 45 -20 7 -45 28 -45 38 0 9 9 7 33 -5z m7741 -5 c11 -28 6 -38 -9 -18 -8
10 -15 22 -15 27 0 13 18 7 24 -9z m-1042 -26 c-6 -6 -15 -9 -18 -5 -4 3 -4
14 0 23 5 13 9 15 18 6 9 -9 9 -15 0 -24z m-1817 12 c3 -5 1 -10 -4 -10 -6 0
-11 5 -11 10 0 6 2 10 4 10 3 0 8 -4 11 -10z m2985 -76 c-17 -7 -26 -8 -29 0
-2 5 1 12 6 13 6 2 8 13 5 25 -5 19 -4 19 19 -3 l24 -24 -25 -11z m30 46 c0
-5 -2 -10 -4 -10 -3 0 -8 5 -11 10 -3 6 -1 10 4 10 6 0 11 -4 11 -10z m-7310
-15 c0 -9 -6 -12 -15 -9 -8 4 -12 10 -9 15 8 14 24 10 24 -6z m7218 -23 c2 -7
-6 -12 -20 -12 -18 0 -23 6 -24 26 -2 23 0 24 19 11 11 -7 23 -19 25 -25z
m-8509 -49 c-1 -48 -3 -59 -8 -38 -5 25 -8 27 -14 12 -4 -10 -7 -29 -7 -42 0
-12 -7 -29 -16 -36 -14 -11 -16 -11 -13 1 8 29 54 170 57 170 1 0 1 -30 1 -67z
m6984 -29 c-4 -10 -9 -12 -15 -6 -12 12 -1 35 12 27 5 -3 6 -13 3 -21z m-6016
-6 c-3 -8 -6 -5 -6 6 -1 11 2 17 5 13 3 -3 4 -12 1 -19z m463 -29 c0 -6 -5
-19 -11 -30 -10 -20 -11 -20 -24 -3 -7 10 -11 24 -8 31 6 16 43 18 43 2z
m-122 -51 c-2 -13 -10 -23 -18 -23 -8 0 -16 10 -18 23 -3 17 2 22 18 22 16 0
21 -5 18 -22z m-1568 -23 c13 -16 6 -35 -15 -35 -18 0 -26 15 -19 34 8 20 18
20 34 1z m197 -77 c-2 -18 -4 -4 -4 32 0 36 2 50 4 33 2 -18 2 -48 0 -65z
m8947 22 c20 -50 20 -60 1 -60 -11 0 -14 7 -9 26 5 20 2 26 -14 30 -14 4 -18
12 -15 25 8 29 19 23 37 -21z m-54 10 c0 -5 -4 -10 -10 -10 -5 0 -10 5 -10 10
0 6 5 10 10 10 6 0 10 -4 10 -10z m-7845 -50 c-3 -6 -13 -10 -21 -10 -15 0
-18 18 -8 45 6 14 8 13 21 -5 8 -11 11 -25 8 -30z m6985 41 c0 -6 -4 -13 -10
-16 -5 -3 -10 1 -10 9 0 9 5 16 10 16 6 0 10 -4 10 -9z m-6811 -20 c16 -10 6
-31 -14 -31 -17 0 -28 17 -20 30 8 12 16 12 34 1z m-1252 -19 c-10 -10 -17
-26 -17 -34 0 -9 -7 -21 -15 -28 -12 -10 -15 -9 -15 7 0 23 36 73 52 73 6 0 4
-8 -5 -18z m-537 -38 c0 -18 -32 -26 -47 -12 -11 11 -10 18 3 36 15 22 17 22
30 5 7 -10 14 -23 14 -29z m9230 42 c0 -2 -8 -10 -17 -17 -16 -13 -17 -12 -4
4 13 16 21 21 21 13z m-2116 -41 c-4 -8 -8 -15 -10 -15 -2 0 -4 7 -4 15 0 8 4
15 10 15 5 0 7 -7 4 -15z m503 -17 c-3 -8 -6 -5 -6 6 -1 11 2 17 5 13 3 -3 4
-12 1 -19z m-7297 -3 c0 -8 -4 -15 -10 -15 -5 0 -10 7 -10 15 0 8 5 15 10 15
6 0 10 -7 10 -15z m7332 -10 c-2 -14 -6 -25 -8 -25 -2 0 -4 11 -4 25 0 14 4
25 9 25 4 0 6 -11 3 -25z m-5608 -1 c4 -10 2 -13 -6 -8 -8 5 -9 1 -4 -12 5
-14 4 -16 -4 -8 -6 6 -8 18 -4 27 8 21 10 21 18 1z m-1599 -41 c-16 -15 -29
-30 -27 -35 1 -5 -3 -8 -10 -7 -7 2 -28 -1 -46 -5 -25 -6 -33 -12 -29 -25 2
-10 -2 -26 -9 -36 -8 -10 -14 -13 -14 -7 0 13 -46 17 -52 5 -2 -5 -27 -21 -56
-36 -30 -15 -51 -24 -48 -18 10 15 133 95 211 136 39 20 74 41 80 46 5 5 14 9
20 9 5 0 -3 -13 -20 -27z m9095 -18 c0 -8 -7 -15 -15 -15 -26 0 -18 20 13 29
1 1 2 -6 2 -14z m-7865 -5 c-3 -5 -1 -10 6 -10 7 0 10 -3 6 -6 -9 -9 -28 6
-22 17 4 5 8 9 11 9 3 0 2 -4 -1 -10z m-118 -16 c-3 -3 -12 -4 -19 -1 -8 3 -5
6 6 6 11 1 17 -2 13 -5z m378 -65 c0 -7 -8 -15 -17 -17 -18 -3 -25 18 -11 32
10 10 28 1 28 -15z m5575 1 c0 -5 -4 -10 -10 -10 -5 0 -10 5 -10 10 0 6 5 10
10 10 6 0 10 -4 10 -10z m970 -6 c0 -8 -5 -12 -10 -9 -6 4 -8 11 -5 16 9 14
15 11 15 -7z m-6831 -21 c0 -5 -3 -9 -9 -11 -5 -2 -10 4 -10 13 0 16 16 14 19
-2z m7401 -8 c-7 -9 -15 -13 -18 -10 -3 2 1 11 8 20 7 9 15 13 18 10 3 -2 -1
-11 -8 -20z m567 -82 c-3 -10 -5 -4 -5 12 0 17 2 24 5 18 2 -7 2 -21 0 -30z
m-9450 21 c-3 -3 -12 -4 -19 -1 -8 3 -5 6 6 6 11 1 17 -2 13 -5z m-37 -8 c0
-3 -4 -8 -10 -11 -5 -3 -10 -1 -10 4 0 6 5 11 10 11 6 0 10 -2 10 -4z m7270
-61 c0 -8 -4 -15 -10 -15 -5 0 -10 7 -10 15 0 8 5 15 10 15 6 0 10 -7 10 -15z
m50 -106 c0 -5 -4 -9 -10 -9 -5 0 -10 7 -10 16 0 8 5 12 10 9 6 -3 10 -10 10
-16z m787 15 c-3 -3 -12 -4 -19 -1 -8 3 -5 6 6 6 11 1 17 -2 13 -5z m-1953
-25 c9 -8 12 -608 4 -602 -5 2 -8 15 -8 28 0 36 -22 129 -33 140 -7 7 -8 4 -4
-7 5 -13 1 -18 -13 -18 -16 0 -20 -7 -21 -32 -2 -57 -14 -88 -34 -88 -21 0
-25 -35 -26 -255 l-2 -210 -8 285 c-5 157 -12 391 -17 520 -5 129 -8 237 -6
240 3 7 161 6 168 -1z m-3293 -24 c73 -25 159 -76 194 -115 18 -20 18 -22 2
-31 -9 -6 -37 -28 -62 -49 l-46 -40 -49 34 c-234 161 -563 11 -613 -281 -27
-155 83 -350 226 -400 37 -12 82 -18 152 -18 89 0 106 3 156 28 96 46 162 128
184 225 l7 32 -172 0 -171 0 3 73 3 72 250 0 250 0 3 -38 c6 -65 -25 -222 -55
-284 -54 -111 -178 -208 -317 -248 -46 -14 -86 -16 -185 -13 -123 4 -128 5
-214 45 -118 57 -194 129 -247 238 -49 100 -64 185 -50 287 13 95 24 126 74
223 22 44 40 84 38 89 -4 12 28 46 44 46 7 0 46 21 86 47 111 72 209 103 336
103 84 0 115 -5 173 -25z m983 -31 c34 -34 11 -84 -39 -84 -32 0 -35 -2 -35
-31 0 -20 -4 -29 -12 -27 -13 5 -24 118 -14 144 7 19 81 18 100 -2z m185 -10
c12 -15 21 -40 21 -56 0 -36 -40 -78 -75 -78 -35 0 -75 42 -75 78 0 44 35 82
75 82 24 0 39 -7 54 -26z m95 -22 c5 -23 13 -42 17 -42 5 0 15 20 21 45 16 61
37 55 58 -15 l17 -55 7 42 c8 44 30 82 41 71 4 -3 -2 -39 -12 -80 -23 -91 -46
-103 -64 -34 -6 26 -15 49 -19 51 -5 3 -13 -18 -20 -46 -17 -68 -38 -63 -62
16 -21 71 -23 98 -5 93 6 -3 16 -23 21 -46z m321 33 c0 -5 -17 -11 -37 -13
-48 -4 -52 -29 -5 -34 17 -2 32 -7 32 -13 0 -5 -15 -11 -32 -13 -25 -2 -33 -8
-33 -22 0 -14 9 -20 38 -22 55 -5 45 -23 -15 -26 l-53 -3 0 81 0 81 53 -3 c28
-2 52 -7 52 -13z m161 -10 c15 -23 15 -27 -1 -51 -15 -23 -15 -28 -1 -49 22
-33 -1 -46 -25 -14 -10 13 -19 27 -19 32 0 4 -6 7 -14 7 -8 0 -16 -12 -18 -27
-2 -14 -9 -28 -15 -31 -10 -3 -13 17 -13 77 l0 81 45 0 c36 0 47 -4 61 -25z
m164 10 c0 -10 -11 -15 -35 -15 -46 0 -49 -27 -2 -32 17 -2 32 -7 32 -13 0 -5
-15 -11 -32 -13 -25 -2 -33 -8 -33 -23 0 -15 7 -19 35 -19 24 0 35 -5 35 -15
0 -11 -12 -15 -50 -15 l-50 0 0 80 0 80 50 0 c38 0 50 -4 50 -15z m165 -10
c53 -52 22 -123 -58 -132 l-47 -6 0 82 0 81 40 0 c30 0 47 -7 65 -25z m270 9
c10 -10 13 -24 9 -36 -3 -11 0 -32 7 -45 12 -23 11 -27 -10 -45 -17 -13 -36
-18 -65 -16 l-41 3 -3 78 -3 77 45 0 c28 0 51 -6 61 -16z m85 9 c0 -5 9 -19
19 -32 l19 -24 16 31 c9 18 23 32 31 32 13 0 11 -8 -7 -42 -12 -24 -24 -58
-27 -77 -8 -46 -31 -53 -31 -9 0 18 -11 51 -25 73 -29 47 -30 55 -10 55 8 0
15 -3 15 -7z m-5287 -123 c-3 -11 -9 -17 -15 -14 -5 3 -4 12 3 20 16 19 18 18
12 -6z m177 -5 c9 -11 9 -18 -3 -35 -14 -20 -14 -20 -32 0 -15 16 -15 22 -5
35 16 19 24 19 40 0z m620 -11 c11 -13 10 -19 -7 -36 l-21 -20 -11 20 c-21 40
11 70 39 36z m6659 1 c3 -12 -13 -9 -17 4 -2 7 0 11 6 7 5 -3 10 -8 11 -11z
m-105 -91 c9 -22 8 -24 -9 -24 -8 0 -15 9 -15 20 0 24 15 27 24 4z m-2704 -20
c252 -57 375 -317 260 -550 -60 -123 -175 -196 -317 -202 -205 -10 -360 115
-403 323 -13 61 -9 100 17 180 40 124 128 207 260 244 85 24 98 25 183 5z
m-879 -8 c153 -35 269 -169 286 -326 4 -47 3 -61 -5 -56 -7 4 -12 22 -12 40 0
18 -7 56 -16 85 -56 191 -282 300 -475 230 -33 -12 -59 -25 -59 -30 0 -5 8 -5
17 -2 14 6 13 3 -3 -15 -12 -13 -30 -40 -40 -62 -10 -22 -23 -40 -27 -40 -5 0
-15 -7 -24 -15 -12 -12 -18 -13 -29 -4 -8 6 -14 8 -14 3 0 -5 -5 -2 -11 6 -9
13 -10 13 -6 0 2 -8 10 -14 16 -12 7 1 10 -2 6 -7 -3 -6 -12 -8 -20 -5 -19 8
-46 -48 -56 -116 l-8 -55 3 65 c11 220 240 372 477 316z m1719 3 c27 -6 72
-26 100 -45 l49 -33 3 32 3 32 76 3 76 3 8 -358 c7 -355 4 -411 -26 -477 -7
-14 -15 -23 -20 -21 -4 3 -5 -3 -3 -13 7 -26 -71 -106 -136 -139 -46 -23 -70
-28 -150 -31 -90 -4 -100 -2 -173 28 -75 32 -164 101 -153 119 3 4 -6 14 -19
21 -14 7 -25 17 -25 20 0 8 115 60 133 60 7 0 25 -16 40 -35 86 -108 270 -106
343 5 20 31 27 55 31 119 l6 81 -42 -40 c-62 -59 -155 -81 -263 -64 -21 4 -35
10 -33 14 3 5 -3 6 -12 4 -26 -7 -134 69 -163 113 -14 21 -28 40 -31 43 -4 3
-18 37 -30 75 -52 155 -23 272 94 390 52 52 74 67 128 84 74 23 117 25 189 10z
m1373 -22 c30 -14 74 -45 98 -69 43 -45 99 -148 99 -183 -1 -11 -9 0 -19 25
-25 64 -43 90 -63 90 -11 0 -18 10 -20 27 -2 14 -9 29 -17 31 -8 3 -11 0 -7
-6 3 -6 2 -13 -3 -17 -6 -3 -8 3 -6 14 5 25 -28 55 -90 81 -70 30 -194 30
-259 1 -25 -12 -46 -26 -46 -32 0 -6 -6 -9 -13 -6 -10 4 -13 -2 -10 -16 2 -12
-6 -37 -17 -55 -17 -28 -25 -33 -52 -30 -31 3 -34 0 -57 -57 -18 -45 -24 -80
-25 -142 -1 -56 -4 -75 -9 -60 -11 27 -2 168 13 219 22 74 132 171 233 204 66
22 202 13 270 -19z m-6898 -47 c4 -6 1 -17 -5 -26 -15 -18 -42 0 -33 22 6 16
29 19 38 4z m3728 -57 c-7 -2 -21 -2 -30 0 -10 3 -4 5 12 5 17 0 24 -2 18 -5z
m4047 -3 c0 -5 -4 -10 -9 -10 -6 0 -13 5 -16 10 -3 6 1 10 9 10 9 0 16 -4 16
-10z m-4224 -63 c-25 -24 -46 -51 -46 -60 0 -9 -4 -19 -10 -22 -18 -11 -11 11
15 49 14 21 22 42 19 48 -4 7 -2 8 4 4 7 -4 22 0 34 8 38 27 33 18 -16 -27z
m-2078 6 c4 -24 -26 -40 -34 -18 -8 21 3 47 19 43 6 -3 13 -14 15 -25z m-568
-4 c0 -11 -4 -17 -10 -14 -5 3 -10 13 -10 21 0 8 5 14 10 14 6 0 10 -9 10 -21z
m806 -4 c4 -8 1 -22 -6 -30 -16 -19 -40 -2 -40 26 0 23 38 26 46 4z m-1672
-20 c-1 -18 -34 -18 -34 0 0 10 7 15 18 13 9 -2 17 -8 16 -13z m6886 -9 c0 -9
-29 -25 -72 -41 -40 -15 -92 -35 -116 -46 -23 -10 -48 -19 -54 -19 -6 0 -34
-11 -62 -24 -94 -44 -96 -44 -95 6 1 24 5 54 9 68 5 16 6 4 3 -32 -3 -32 -2
-58 3 -58 5 0 56 19 114 41 58 22 128 49 155 59 72 25 105 42 105 52 0 4 2 8
5 8 3 0 5 -6 5 -14z m-367 -11 c-3 -9 -8 -14 -10 -11 -3 3 -2 9 2 15 9 16 15
13 8 -4z m-4628 -20 c0 -28 -29 -25 -33 3 -3 19 0 23 15 20 10 -2 18 -12 18
-23z m-575 -4 c0 -27 -13 -33 -35 -17 -21 15 -12 36 16 36 12 0 19 -7 19 -19z
m-862 -24 c2 -12 -3 -17 -17 -17 -15 0 -21 6 -21 21 0 25 33 22 38 -4z m2984
-59 c-6 -77 26 -163 79 -210 137 -125 350 -35 378 158 8 58 9 58 9 14 3 -135
-106 -245 -243 -244 -74 1 -129 27 -179 86 -41 48 -56 91 -56 165 0 44 7 83
14 83 2 0 1 -24 -2 -52z m2725 -45 c-3 -10 -5 -4 -5 12 0 17 2 24 5 18 2 -7 2
-21 0 -30z m-5040 -23 c-1 -12 -5 -16 -10 -11 -5 5 -6 14 -3 20 11 16 15 13
13 -9z m193 6 c0 -8 -5 -18 -11 -22 -14 -8 -33 11 -25 25 10 16 36 13 36 -3z
m1977 -23 c-3 -10 -5 -4 -5 12 0 17 2 24 5 18 2 -7 2 -21 0 -30z m-1640 -55
c-3 -8 -6 -5 -6 6 -1 11 2 17 5 13 3 -3 4 -12 1 -19z m2358 -55 c-9 -15 -14
-20 -11 -10 4 11 9 31 13 45 5 19 8 22 11 10 2 -9 -4 -29 -13 -45z m-4010 27
c3 -5 1 -10 -4 -10 -6 0 -11 5 -11 10 0 6 2 10 4 10 3 0 8 -4 11 -10z m6627
-86 c44 -23 138 -29 195 -14 29 9 61 28 85 52 21 21 40 38 43 38 11 0 105 -75
105 -83 0 -5 -20 7 -44 27 -24 20 -50 36 -58 36 -7 0 -28 -15 -46 -33 -42 -43
-119 -71 -180 -65 -64 7 -140 46 -170 88 l-25 35 32 -33 c18 -17 46 -39 63
-48z m-4737 47 c-3 -6 -14 -10 -23 -10 -15 1 -15 2 1 6 9 2 17 9 17 15 0 6 3
9 6 5 3 -3 3 -10 -1 -16z m5545 -1 c13 -8 13 -11 -2 -26 -14 -14 -20 -15 -33
-4 -12 10 -13 16 -4 26 13 16 19 17 39 4z m-6462 -28 c2 -14 -2 -22 -11 -22
-17 0 -26 19 -19 38 7 19 27 9 30 -16z m2990 -32 c-7 -10 -14 -17 -17 -15 -4
4 18 35 25 35 2 0 -1 -9 -8 -20z m-1963 -30 c0 -16 -6 -26 -18 -28 -19 -4 -32
20 -23 44 9 25 41 13 41 -16z m4172 -52 c-2 -13 -4 -5 -4 17 -1 22 1 32 4 23
2 -10 2 -28 0 -40z m-4740 -12 c-7 -21 -37 -19 -37 2 0 15 5 19 20 15 12 -3
19 -11 17 -17z m3378 -5 c-3 -6 -11 -8 -17 -5 -6 4 -5 9 3 15 16 10 23 4 14
-10z m-349 -77 c-18 -39 -47 -27 -53 23 -3 20 -1 21 30 11 31 -10 33 -12 23
-34z m2159 17 c8 -13 -23 -41 -45 -41 -25 0 -34 16 -18 34 15 17 54 21 63 7z
m-3838 -37 c-3 -3 -12 -4 -19 -1 -8 3 -5 6 6 6 11 1 17 -2 13 -5z m-2669 -27
c4 -20 -25 -34 -40 -19 -15 15 -1 44 19 40 10 -2 19 -11 21 -21z m8582 -40
c11 -5 9 -6 -4 -4 -11 1 -21 9 -23 17 -3 10 -2 11 4 4 4 -6 15 -14 23 -17z
m-1200 -18 c0 -5 -5 -7 -12 -3 -8 5 -9 1 -4 -12 5 -14 4 -16 -5 -7 -6 6 -8 16
-5 22 9 14 26 14 26 0z m-6140 -59 c0 -11 -7 -20 -15 -20 -15 0 -21 21 -8 33
12 13 23 7 23 -13z m-1555 -29 c-6 -5 -25 10 -25 20 0 5 6 4 14 -3 8 -7 12
-15 11 -17z m5369 -12 c-10 -16 -24 -9 -24 12 0 18 2 19 15 9 8 -7 12 -16 9
-21z m-4915 4 c0 -5 -2 -8 -6 -9 -5 0 -4 1 1 4 4 2 2 9 -5 14 -8 5 -9 7 -3 4
6 -3 12 -9 13 -13z m4551 -32 c113 -2 192 -6 176 -8 -20 -3 -25 -7 -16 -13 7
-4 -117 -6 -276 -3 -159 2 -309 1 -332 -4 -28 -5 27 -8 155 -7 205 1 333 -4
333 -15 0 -3 -152 -7 -338 -8 -332 -2 -737 -16 -942 -33 -137 -12 -415 -39
-460 -45 -33 -5 -65 -9 -330 -40 -63 -7 -131 -19 -150 -25 -19 -7 -50 -11 -67
-11 -24 1 -33 -3 -33 -14 0 -14 16 -16 117 -14 111 1 117 0 134 -22 22 -29 25
-46 4 -29 -12 10 -15 9 -15 -4 0 -10 -4 -14 -10 -11 -10 6 -17 -56 -11 -100 1
-11 2 -41 2 -66 l-1 -46 62 -6 c88 -9 378 -21 379 -16 0 2 8 73 17 158 l17
153 140 -1 c76 -1 140 -3 141 -4 8 -11 14 -48 6 -44 -9 6 -25 -207 -19 -248 3
-17 14 -21 73 -26 38 -3 108 -3 156 -1 l86 5 79 163 78 164 151 0 c171 0 161
4 197 -88 9 -23 28 -60 42 -82 14 -22 25 -48 25 -58 0 -11 14 -33 30 -50 17
-18 30 -35 30 -39 0 -5 64 -8 143 -8 l142 0 2 118 c2 91 0 119 -11 123 -10 4
-11 14 -3 49 l10 45 136 -7 c75 -3 138 -7 140 -9 2 -2 4 -72 5 -156 l1 -153
145 3 c80 1 186 5 237 8 l91 6 33 51 c47 73 128 149 190 180 83 40 145 50 282
43 170 -8 219 -15 242 -36 11 -10 32 -21 46 -25 31 -8 141 -109 131 -120 -4
-5 2 -5 13 0 11 4 45 7 75 6 52 -1 138 14 225 39 22 6 46 12 53 12 6 1 12 5
12 10 0 4 18 11 41 14 29 5 39 11 35 21 -3 8 -2 11 3 8 5 -3 12 -1 16 5 4 6
11 8 17 4 5 -3 2 8 -6 25 -16 31 -24 35 -59 31 -10 -1 -33 8 -52 19 -38 22
-134 40 -270 50 -49 4 -95 10 -101 13 -6 4 -40 10 -75 13 -35 3 -91 12 -124
20 -33 8 -92 17 -132 20 -40 4 -96 13 -125 20 l-53 13 95 -3 95 -4 -100 13
c-152 20 -174 35 -50 35 111 0 197 -7 485 -39 184 -21 236 -26 320 -29 28 -1
32 -4 20 -12 -11 -7 0 -9 41 -5 57 5 133 -11 176 -39 12 -8 40 -16 62 -17 33
-1 45 -8 69 -37 41 -52 47 -85 22 -126 -19 -31 -45 -48 -135 -86 -29 -13 -169
-48 -186 -46 -26 2 -134 -15 -144 -24 -6 -4 -29 -4 -50 1 -31 7 -42 6 -51 -5
-6 -8 -23 -15 -37 -15 -14 0 -33 -8 -43 -17 -10 -10 -20 -16 -22 -13 -3 3 -10
-3 -16 -12 -8 -13 -8 -23 0 -36 19 -30 28 -239 14 -308 -34 -165 -148 -271
-315 -293 -39 -5 -115 -8 -171 -6 -200 7 -335 88 -415 250 -25 49 -43 102 -46
131 -7 69 -11 83 -23 64 -7 -11 -10 -8 -10 13 0 15 5 27 10 27 6 0 10 26 10
58 0 40 -3 53 -10 42 -5 -8 -10 -11 -10 -6 0 5 -7 3 -15 -4 -13 -11 -15 -8
-15 15 l0 28 -217 -8 c-120 -4 -219 -8 -221 -10 -4 -4 -3 -368 2 -372 2 -2
100 -4 219 -4 199 0 217 -1 240 -19 30 -24 41 -25 33 -5 -3 8 -2 15 3 15 8 0
21 -103 21 -173 l0 -38 -97 1 c-54 1 -100 1 -103 0 -6 -1 -65 -1 -312 3 l-168
2 -45 50 c-25 28 -49 66 -54 85 -8 31 -20 258 -21 398 l0 52 -140 0 c-77 0
-140 -2 -140 -5 0 -15 25 -55 35 -55 7 0 16 -20 20 -47 6 -43 28 -98 149 -372
25 -57 46 -105 46 -107 0 -4 -291 4 -295 8 -2 2 -19 41 -38 88 l-36 85 -109 1
c-61 1 -117 4 -125 7 -8 3 -17 3 -20 0 -3 -3 -48 -6 -99 -7 l-93 -1 -41 -83
c-23 -45 -44 -85 -48 -89 -3 -3 -55 -7 -116 -9 -60 -1 -123 -5 -140 -9 -18 -4
-30 -3 -30 3 0 13 23 67 95 217 111 235 146 316 151 346 l5 27 -98 2 c-54 2
-116 3 -138 4 -38 1 -40 -1 -43 -32 -2 -18 -7 -30 -11 -28 -4 3 -5 -11 -3 -30
2 -19 0 -34 -6 -34 -13 0 -23 -69 -13 -88 5 -8 3 -25 -5 -41 -7 -14 -19 -93
-28 -175 -8 -82 -19 -153 -24 -158 -4 -4 -19 -8 -32 -7 -106 3 -141 3 -185 -1
-60 -5 -57 -26 -26 218 11 95 19 177 17 181 -6 10 -477 4 -486 -6 -4 -4 -15
-69 -24 -143 -28 -219 -33 -237 -65 -248 -16 -6 -34 -6 -42 -1 -12 7 -147 3
-175 -6 -6 -2 -16 0 -23 5 -10 6 -9 29 7 111 36 185 85 508 79 522 -3 9 -31
16 -85 21 -116 9 -353 61 -416 89 -96 44 -116 116 -41 150 22 10 44 25 48 33
4 8 13 14 20 14 7 0 48 12 92 26 167 53 389 91 880 148 427 50 491 55 965 76
387 17 494 18 910 11z m-4716 -26 c-6 -16 -24 -21 -24 -7 0 11 11 22 21 22 5
0 6 -7 3 -15z m4923 -1 c-3 -3 -12 -4 -19 -1 -8 3 -5 6 6 6 11 1 17 -2 13 -5z
m-4584 -41 c-3 -7 2 -13 12 -13 9 0 14 4 11 9 -4 5 4 7 16 3 16 -4 18 -7 8
-10 -8 -3 -24 -13 -35 -22 -19 -18 -21 -18 -49 5 l-28 23 28 -6 c27 -5 28 -4
15 12 -13 15 -13 19 -1 26 17 10 31 -6 23 -27z m442 7 c-5 -8 -11 -8 -17 -2
-6 6 -7 16 -3 22 5 8 11 8 17 2 6 -6 7 -16 3 -22z m379 15 c17 -13 17 -15 2
-30 -14 -14 -19 -15 -34 -4 -9 7 -19 14 -21 16 -4 2 22 32 29 32 3 0 13 -6 24
-14z m6546 -27 c0 -12 -48 -10 -55 2 -4 6 -1 18 6 26 10 13 14 12 30 -2 11
-10 19 -21 19 -26z m-5902 -11 c4 -20 -25 -34 -40 -19 -15 15 -1 44 19 40 10
-2 19 -11 21 -21z m7487 -17 c3 -5 1 -10 -4 -10 -6 0 -11 5 -11 10 0 6 2 10 4
10 3 0 8 -4 11 -10z m-8925 -30 c0 -5 -4 -10 -10 -10 -5 0 -10 5 -10 10 0 6 5
10 10 10 6 0 10 -4 10 -10z m-385 -30 c4 -6 1 -17 -5 -25 -9 -11 -16 -12 -30
-2 -14 8 -16 15 -8 24 13 16 34 17 43 3z m-281 -16 c3 -8 2 -12 -4 -9 -6 3
-10 10 -10 16 0 14 7 11 14 -7z m8141 -2 c-3 -3 -11 0 -18 7 -9 10 -8 11 6 5
10 -3 15 -9 12 -12z m-7125 -28 c0 -9 -5 -14 -12 -12 -18 6 -21 28 -4 28 9 0
16 -7 16 -16z m-80 -29 c0 -8 -4 -15 -8 -15 -5 0 -9 7 -9 15 0 8 4 15 9 15 4
0 8 -7 8 -15z m6950 -10 c15 -18 5 -35 -21 -35 -12 0 -19 7 -19 18 0 33 20 42
40 17z m894 -34 c71 -17 136 -107 136 -189 0 -39 -41 -121 -66 -135 -9 -5 -19
-18 -24 -30 -7 -17 -9 -18 -9 -5 -1 10 12 32 29 51 37 43 50 77 50 133 0 137
-152 216 -268 141 -19 -13 -43 -43 -57 -72 -21 -44 -23 -58 -16 -103 4 -29 17
-62 27 -74 10 -12 27 -31 36 -42 9 -10 22 -43 28 -73 l12 -54 71 3 72 3 7 35
c6 32 6 32 5 -10 l-2 -44 -85 1 c-82 0 -85 1 -88 24 -8 70 -16 92 -47 125 -50
52 -68 119 -51 184 28 106 122 158 240 131z m731 -47 c0 -10 -8 -20 -17 -22
-18 -3 -26 27 -11 42 12 11 28 0 28 -20z m-8425 -32 c0 -11 7 -33 16 -51 15
-30 15 -32 -8 -51 -24 -20 -38 -25 -38 -12 0 4 -23 20 -50 36 l-49 30 34 23
c33 22 71 41 88 42 4 1 7 -7 7 -17z m-1053 -58 c7 -18 -17 -38 -31 -24 -11 11
-1 40 14 40 6 0 13 -7 17 -16z m8739 -10 c47 -28 55 -47 25 -63 -24 -13 -41
-82 -41 -165 0 -37 -4 -66 -10 -66 -12 0 -13 115 -1 138 5 9 12 37 16 62 7 40
6 43 -9 31 -10 -8 -27 -11 -46 -7 -17 3 -30 4 -30 2 0 -2 7 -23 15 -46 9 -25
14 -72 13 -114 l-1 -71 -7 75 c-7 81 -22 131 -52 169 -20 27 -10 51 22 51 10
0 23 7 30 15 17 20 24 19 76 -11z m-1216 -14 c0 -5 -4 -10 -10 -10 -5 0 -10 5
-10 10 0 6 5 10 10 10 6 0 10 -4 10 -10z m-6310 -15 c0 -8 -4 -15 -9 -15 -13
0 -22 16 -14 24 11 11 23 6 23 -9z m-480 -15 c0 -11 -4 -20 -10 -20 -5 0 -10
9 -10 20 0 11 5 20 10 20 6 0 10 -9 10 -20z m150 10 c0 -5 -4 -10 -10 -10 -5
0 -10 5 -10 10 0 6 5 10 10 10 6 0 10 -4 10 -10z m590 0 c0 -5 -4 -10 -10 -10
-5 0 -10 5 -10 10 0 6 5 10 10 10 6 0 10 -4 10 -10z m-859 -19 c7 11 9 11 9
-3 0 -10 -7 -18 -15 -18 -9 0 -15 9 -14 23 1 19 2 19 6 3 4 -15 7 -16 14 -5z
m-475 -52 c10 -17 -23 -46 -37 -32 -7 7 -9 19 -6 27 7 18 33 21 43 5z m7957
-13 c8 -19 -16 -38 -37 -30 -16 6 -21 25 -9 37 12 12 41 7 46 -7z m952 -61 c1
-5 0 -7 -2 -2 -7 11 -31 8 -36 -5 -3 -8 -6 -5 -6 5 -1 13 5 18 21 15 12 -2 22
-7 23 -13z m-7145 -15 c0 -5 -2 -10 -4 -10 -3 0 -8 5 -11 10 -3 6 -1 10 4 10
6 0 11 -4 11 -10z m-486 -55 c-4 -8 -8 -15 -10 -15 -2 0 -4 7 -4 15 0 8 4 15
10 15 5 0 7 -7 4 -15z m-684 -34 c0 -6 -4 -13 -10 -16 -5 -3 -10 1 -10 9 0 9
5 16 10 16 6 0 10 -4 10 -9z m1513 -47 c9 -10 -4 -34 -18 -34 -17 0 -28 17
-20 30 7 11 28 13 38 4z m6377 -24 c0 -5 -2 -10 -4 -10 -3 0 -8 5 -11 10 -3 6
-1 10 4 10 6 0 11 -4 11 -10z m155 0 c-3 -5 -17 -10 -31 -10 -13 0 -24 5 -24
10 0 6 14 10 31 10 17 0 28 -4 24 -10z m-7166 -38 c0 -11 -2 -12 -6 -4 -2 6
-9 10 -14 6 -10 -6 -12 9 -3 19 10 10 24 -2 23 -21z m7161 4 c0 -3 -4 -8 -10
-11 -5 -3 -10 -1 -10 4 0 6 5 11 10 11 6 0 10 -2 10 -4z m-313 -22 c-3 -3 -12
-4 -19 -1 -8 3 -5 6 6 6 11 1 17 -2 13 -5z m-2782 -14 c3 -5 1 -10 -4 -10 -6
0 -11 5 -11 10 0 6 2 10 4 10 3 0 8 -4 11 -10z m-5525 -37 c0 -20 -27 -28 -45
-13 -14 11 -14 15 1 31 13 14 20 16 31 8 7 -6 13 -18 13 -26z m1020 28 c0 -6
-4 -13 -10 -16 -5 -3 -10 1 -10 9 0 9 5 16 10 16 6 0 10 -4 10 -9z m8400 -125
c0 -8 -5 -18 -10 -21 -13 -8 -42 14 -34 26 9 15 44 10 44 -5z m-7952 -19 c2
-12 -3 -17 -17 -17 -23 0 -24 1 -15 25 8 19 28 15 32 -8z m-1451 -9 c-3 -8 -6
-5 -6 6 -1 11 2 17 5 13 3 -3 4 -12 1 -19z m8310 -14 c8 -20 -8 -36 -26 -25
-15 10 -8 41 9 41 6 0 13 -7 17 -16z m441 -85 c4 -19 -27 -34 -41 -20 -14 14
0 43 20 39 10 -2 19 -10 21 -19z m-8577 -22 c-13 -13 -26 -3 -16 12 3 6 11 8
17 5 6 -4 6 -10 -1 -17z m102 10 c3 -8 1 -20 -4 -28 -11 -19 -34 3 -26 25 8
20 23 21 30 3z m8291 -58 c-3 -6 0 -15 7 -20 11 -7 10 -9 -3 -9 -18 0 -24 20
-11 33 10 11 15 8 7 -4z m-7077 -23 c-2 -6 -12 -12 -23 -13 -10 -2 -13 0 -6 3
6 3 12 10 12 15 0 6 -5 7 -12 3 -7 -4 -8 -3 -4 4 8 14 38 4 33 -12z m-1206
-53 c-11 -5 -11 -7 0 -14 11 -7 10 -9 -3 -9 -18 0 -23 11 -11 23 3 4 11 7 17
6 6 0 5 -3 -3 -6z m736 -12 c34 -5 74 -16 90 -24 15 -9 42 -22 58 -30 17 -8
36 -21 44 -30 7 -10 19 -17 25 -17 6 0 16 -10 23 -23 81 -157 76 -141 81 -297
4 -150 7 -160 49 -160 12 0 34 -11 48 -24 l26 -24 -1 -387 c0 -380 0 -387 20
-392 11 -3 20 -10 20 -15 0 -6 -7 -8 -15 -5 -8 4 -17 2 -20 -3 -5 -8 2 -14 85
-75 44 -32 44 -30 27 -130 -2 -10 -19 -28 -38 -38 -19 -10 -44 -30 -55 -44
-17 -20 -28 -24 -48 -19 -25 6 -101 -6 -114 -19 -4 -3 -1 -10 7 -14 9 -6 5
-10 -13 -13 -14 -3 -23 -1 -20 3 9 15 -26 11 -238 -27 -21 -4 -35 -10 -32 -15
7 -12 -10 -11 -22 1 -13 13 -64 -4 -64 -21 0 -6 -7 -9 -15 -5 -8 3 -15 0 -15
-6 0 -9 -3 -9 -12 0 -7 7 -20 12 -31 12 -10 0 -15 5 -12 10 3 6 -4 10 -15 10
-16 0 -20 -4 -16 -16 4 -12 1 -14 -14 -9 -20 6 -50 -14 -50 -34 0 -6 -4 -11
-10 -11 -6 0 -6 9 0 26 6 14 10 32 10 40 0 19 -49 18 -76 -1 -12 -8 -25 -11
-29 -7 -3 4 -16 8 -28 9 -12 1 -51 6 -86 12 -36 5 -68 8 -73 5 -5 -3 -15 0
-24 6 -9 8 -30 11 -59 7 -27 -4 -45 -3 -45 3 0 6 28 10 63 10 73 1 62 12 -31
34 -55 13 -70 22 -127 76 -12 11 -28 20 -37 20 -9 0 -20 5 -23 10 -3 6 -2 10
4 10 6 0 8 7 5 15 -4 8 1 17 9 21 9 3 14 11 12 17 -3 7 16 27 40 46 33 24 43
37 35 46 -5 6 -7 15 -3 19 4 3 -9 4 -28 1 l-34 -6 40 17 c22 9 59 24 83 33
l42 16 0 359 -1 360 23 13 c13 7 40 12 61 13 l37 0 0 129 c0 217 28 309 124
405 110 111 227 149 383 127z m7259 -37 c61 -45 230 -123 313 -144 59 -16 98
-20 131 -16 36 5 50 3 60 -9 7 -8 34 -18 62 -21 l50 -7 -4 -293 c-2 -161 -7
-296 -11 -300 -4 -5 -12 -2 -16 5 -9 14 -32 -51 -45 -129 -7 -35 -7 -35 8 -10
9 14 15 20 16 13 0 -22 -12 -43 -26 -43 -8 0 -24 -21 -35 -46 -20 -48 -20 -73
1 -34 6 12 14 19 17 17 9 -9 -27 -67 -42 -67 -19 0 -36 -34 -29 -57 5 -15 4
-15 -5 -3 -9 13 -11 13 -11 -3 0 -32 -37 -91 -89 -142 -28 -27 -63 -65 -77
-83 l-25 -32 23 -10 c19 -8 17 -9 -13 -4 -28 4 -36 2 -36 -10 0 -10 14 -17 44
-22 25 -4 67 -17 94 -30 27 -13 51 -24 54 -24 16 0 83 -54 98 -80 16 -27 16
-32 3 -59 -27 -51 -130 -94 -284 -117 -79 -11 -30 -25 53 -14 71 9 96 8 84 -4
-9 -9 -213 -26 -308 -26 -85 0 -151 5 -335 25 -26 3 -55 9 -65 14 -9 5 -36 12
-61 16 -108 18 -263 94 -291 144 -14 23 -14 32 -3 53 14 26 75 72 112 83 12 3
22 11 22 16 0 5 15 9 34 9 34 0 61 20 38 28 -23 7 -12 24 12 20 15 -3 27 0 30
8 3 8 13 14 22 14 11 0 5 13 -23 48 -76 92 -113 150 -161 253 -47 100 -94 230
-106 294 -9 50 -17 495 -10 567 l6 67 62 6 c33 3 95 7 136 8 81 4 227 46 269
78 13 11 29 19 35 19 7 0 36 15 66 34 62 39 103 39 156 0z m-6028 -13 c35 -1
49 -7 78 -36 32 -33 35 -39 29 -75 l-7 -40 -48 0 c-43 0 -49 3 -52 23 -3 20
-9 22 -72 25 -38 2 -73 -1 -77 -5 -14 -15 -43 -223 -32 -234 10 -10 47 -14
111 -11 28 2 36 8 45 32 10 28 15 30 59 30 44 0 48 -2 48 -24 0 -40 -16 -71
-56 -110 l-36 -35 -112 6 c-94 5 -115 9 -134 27 -43 38 -44 49 -26 198 17 138
19 142 53 181 45 48 62 55 131 51 30 -1 74 -3 98 -3z m939 -44 c32 -31 32 -34
24 -85 -5 -31 -17 -62 -30 -76 l-21 -23 21 -19 c19 -17 21 -27 16 -78 -5 -50
-11 -64 -39 -92 l-33 -34 -153 -3 -152 -4 0 41 c0 23 9 109 20 191 11 83 20
164 20 182 0 30 3 32 38 35 20 2 87 1 147 0 108 -4 111 -4 142 -35z m-650 16
c3 -10 16 -40 28 -68 12 -27 24 -57 27 -65 3 -10 10 -6 23 15 11 17 37 54 58
83 l39 52 64 0 c60 0 84 -13 50 -26 -8 -3 -41 -40 -73 -81 -32 -42 -71 -92
-88 -111 -26 -31 -31 -47 -40 -130 l-10 -96 -55 0 -55 -1 3 50 c2 28 8 69 13
92 8 39 5 50 -51 167 -33 68 -60 127 -60 130 0 3 27 6 60 6 49 0 62 -3 67 -17z
m1055 -28 c-2 -22 -6 -42 -9 -45 -2 -3 -48 -5 -101 -5 l-96 0 -8 -34 c-5 -18
-6 -36 -3 -39 3 -4 45 -9 93 -12 l87 -5 -3 -35 c-2 -19 -5 -36 -7 -38 -1 -2
-42 -4 -91 -5 l-89 -2 -3 -42 -3 -43 110 0 c109 0 111 0 110 -22 -1 -13 -4
-34 -8 -47 -7 -27 -1 -26 -209 -23 l-114 2 6 73 c3 39 11 133 17 207 6 74 12
141 14 148 4 10 40 12 157 10 l153 -3 -3 -40z m383 8 c35 -38 35 -38 29 -108
-5 -59 -11 -75 -35 -100 -16 -17 -29 -36 -29 -43 0 -7 15 -41 32 -75 18 -34
34 -65 36 -69 2 -5 -23 -8 -55 -8 l-58 0 -32 73 -32 72 -45 3 -46 3 0 -75 c0
-72 -1 -76 -22 -77 -13 0 -33 -2 -45 -3 -12 -1 -27 0 -32 4 -10 5 4 392 15
428 2 9 40 12 144 12 l140 0 35 -37z m408 -1 c32 -33 36 -41 29 -67 -7 -27
-13 -30 -50 -33 -32 -2 -42 0 -42 12 0 8 -5 18 -12 22 -19 12 -121 14 -135 2
-14 -11 -18 -54 -5 -61 4 -3 50 -10 102 -16 88 -11 97 -14 121 -43 23 -28 26
-39 23 -92 -2 -52 -7 -64 -36 -93 l-33 -33 -112 -1 -113 -1 -34 38 c-26 28
-34 45 -32 68 3 30 4 31 46 28 28 -3 49 -11 59 -23 14 -17 26 -20 80 -17 60 3
65 5 72 29 3 15 3 32 0 38 -4 6 -49 16 -100 22 -83 9 -95 13 -121 41 -26 27
-30 39 -30 87 0 50 3 59 37 93 l37 38 106 0 106 0 37 -38z m392 -12 l0 -45
-95 -1 -95 -2 0 -38 0 -39 83 -3 82 -3 0 -39 0 -40 -85 0 -85 0 0 -45 0 -45
99 0 c108 0 111 -2 111 -61 l0 -29 -82 -1 c-156 -1 -220 -1 -223 3 -6 6 -13
427 -7 433 3 3 71 4 151 3 l146 -3 0 -45z m380 19 c32 -28 36 -37 33 -73 -3
-41 -3 -41 -45 -44 -36 -3 -43 0 -43 15 0 31 -21 43 -76 43 -85 0 -84 2 -84
-117 0 -57 4 -112 10 -122 7 -14 22 -19 61 -20 60 -1 89 12 89 39 0 17 7 20
50 20 l50 0 0 -42 c-1 -32 -8 -51 -28 -75 l-27 -32 -113 -2 -113 -2 -39 38
-40 39 0 149 0 150 33 33 32 34 107 0 c106 0 108 0 143 -31z m200 -137 c7
-110 14 -165 23 -170 19 -13 130 -8 143 5 10 10 10 45 1 164 -6 84 -9 156 -6
161 8 13 94 10 99 -4 2 -7 8 -89 13 -183 l9 -170 -38 -39 -37 -39 -111 -2
-110 -2 -38 39 -38 39 -11 172 c-7 94 -9 177 -7 185 4 9 20 12 52 10 l46 -3
10 -163z m634 131 c37 -35 40 -43 45 -110 l6 -73 -34 -32 -35 -33 45 -73 c24
-40 44 -77 44 -82 0 -6 -18 -10 -40 -10 -48 0 -72 22 -120 106 -28 50 -33 54
-66 54 l-36 0 3 -77 4 -78 -44 -3 c-27 -2 -47 1 -51 9 -5 6 -11 91 -15 188 -4
96 -11 188 -16 205 -5 16 -6 33 -3 37 3 5 66 9 140 9 l135 0 38 -37z m195 -10
c18 -152 37 -376 32 -389 -6 -15 -81 -20 -90 -6 -2 4 -9 59 -15 122 -7 63 -16
157 -21 209 -5 52 -7 98 -4 103 3 4 25 8 49 8 l43 0 6 -47z m580 -22 c68 -100
71 -101 91 -41 9 27 21 50 26 50 5 0 9 4 9 10 0 5 -8 7 -17 3 -14 -5 -12 0 6
20 21 23 33 27 81 27 31 0 59 -3 63 -6 3 -3 -24 -62 -60 -131 l-66 -126 12
-81 c16 -115 19 -107 -41 -104 l-53 3 -12 50 c-6 28 -12 69 -12 92 -1 35 -12
56 -76 142 -69 91 -107 131 -127 131 -5 0 -8 -16 -8 -35 l0 -35 -61 0 -61 0 6
-27 c10 -57 26 -200 29 -258 l2 -60 -42 -1 c-23 -1 -45 2 -50 5 -5 3 -15 60
-22 126 -6 66 -15 141 -18 168 l-6 47 -57 0 -58 0 -4 46 c-2 25 -2 47 0 49 3
2 111 4 241 4 l238 1 47 -69z m406 19 c0 -5 -4 -10 -10 -10 -5 0 -10 5 -10 10
0 6 5 10 10 10 6 0 10 -4 10 -10z m100 -244 c0 -8 -5 -18 -10 -21 -13 -8 -42
14 -34 26 9 15 44 10 44 -5z m-95 -146 c0 -7 -5 -15 -10 -17 -6 -2 -11 6 -11
17 0 11 5 19 11 17 5 -2 10 -10 10 -17z m-4885 -174 c0 -2 -7 -7 -16 -10 -8
-3 -12 -2 -9 4 6 10 25 14 25 6z m255 -131 c53 -52 15 -125 -66 -125 l-39 0 0
68 c0 38 3 72 7 75 16 17 75 6 98 -18z m185 16 c0 -6 -15 -11 -32 -13 -25 -2
-33 -8 -33 -23 0 -15 8 -21 33 -23 40 -4 32 -22 -9 -22 -42 0 -36 -34 6 -38
54 -6 52 -22 -3 -22 l-52 0 0 75 0 75 45 0 c25 0 45 -4 45 -9z m180 -1 c0 -5
-16 -10 -36 -10 -31 0 -35 -3 -32 -22 2 -18 11 -24 36 -26 39 -4 33 -22 -9
-22 -26 0 -29 -3 -29 -30 0 -16 -4 -30 -10 -30 -6 0 -10 32 -10 75 l0 75 45 0
c25 0 45 -4 45 -10z m180 0 c0 -5 -18 -10 -41 -10 -36 0 -40 -2 -37 -22 2 -18
11 -24 36 -26 17 -2 32 -8 32 -13 0 -6 -10 -10 -22 -9 -40 4 -48 0 -48 -20 0
-17 7 -20 40 -20 22 0 40 -4 40 -10 0 -5 -22 -10 -50 -10 l-50 0 0 75 0 75 50
0 c28 0 50 -4 50 -10z m132 -40 c17 -27 35 -47 39 -44 5 3 9 25 9 50 0 24 5
44 10 44 6 0 10 -32 10 -75 0 -92 -14 -97 -61 -23 l-34 53 -5 -50 c-6 -64 -24
-65 -28 -2 -4 56 4 97 19 97 5 0 24 -22 41 -50z m245 35 c27 -19 38 -67 22
-97 -17 -32 -28 -38 -76 -38 l-43 0 0 75 0 75 38 0 c21 0 47 -7 59 -15z m418
5 c18 -8 17 -9 -7 -9 -27 -1 -28 -3 -28 -52 0 -38 5 -55 18 -65 16 -12 16 -13
-3 -10 -17 2 -20 12 -23 61 -4 83 1 93 43 75z m390 0 c3 -5 1 -10 -4 -10 -7 0
-12 -28 -13 -67 l-2 -68 -3 68 c-3 59 -6 67 -23 67 -11 0 -20 5 -20 10 0 6 13
10 29 10 17 0 33 -4 36 -10z m370 -2 c14 -6 25 -15 25 -20 0 -13 -10 -10 -37
12 -29 23 -25 25 12 8z m160 2 c3 -5 -3 -10 -15 -10 -12 0 -18 5 -15 10 3 6
10 10 15 10 5 0 12 -4 15 -10z m448 -18 c20 -18 23 -71 4 -97 -10 -12 -28 -18
-58 -19 l-44 -1 -3 73 -3 72 43 -6 c24 -4 51 -14 61 -22z m152 18 c-3 -5 -11
-10 -17 -10 -16 0 -37 -32 -38 -58 0 -13 12 -34 26 -47 23 -22 24 -23 4 -18
-43 11 -55 101 -18 127 25 18 53 21 43 6z m185 -41 c9 -24 21 -44 28 -44 6 0
22 20 34 45 13 25 28 45 33 45 6 0 11 -30 13 -67 2 -38 -1 -68 -6 -68 -4 0 -9
19 -11 42 -1 23 -4 44 -6 47 -3 2 -14 -17 -25 -42 -12 -26 -25 -47 -29 -47 -5
0 -16 20 -25 45 -18 46 -35 52 -37 12 -1 -13 -5 -5 -10 18 -18 77 15 89 41 14z
m340 1 c18 -27 36 -50 41 -50 5 0 9 20 9 45 0 25 5 45 11 45 6 0 9 -25 8 -65
-2 -72 -18 -85 -43 -37 -17 33 -52 67 -58 55 -2 -4 -5 -24 -7 -43 -5 -61 -11
-46 -11 28 0 40 4 72 9 72 5 0 23 -22 41 -50z m405 40 c-3 -5 -13 -10 -21 -10
-11 0 -14 -15 -14 -65 0 -37 -4 -65 -10 -65 -6 0 -10 28 -10 65 0 51 -3 65
-15 65 -8 0 -15 5 -15 10 0 6 21 10 46 10 27 0 43 -4 39 -10z m155 0 c0 -5
-13 -10 -30 -10 -25 0 -30 -4 -30 -25 0 -21 5 -25 33 -26 l32 -1 -30 -7 c-26
-6 -30 -11 -30 -39 0 -18 -4 -31 -10 -29 -9 3 -17 124 -10 137 6 11 75 11 75
0z m-2546 -22 c33 -46 11 -109 -37 -107 -20 0 -19 2 5 10 42 16 45 84 4 111
-8 6 -7 8 1 8 6 0 19 -10 27 -22z m118 10 c-7 -7 -12 -20 -12 -30 0 -14 9 -18
38 -19 l37 -2 -35 -6 c-30 -5 -35 -10 -35 -33 1 -16 -3 -28 -7 -28 -4 0 -8 29
-8 65 0 55 3 65 17 65 13 0 14 -3 5 -12z m376 -50 l37 -1 -37 -4 c-32 -4 -38
-8 -38 -27 0 -12 5 -27 12 -34 9 -9 8 -12 -5 -12 -15 0 -17 10 -15 73 0 39 3
57 5 40 4 -30 7 -33 41 -35z m142 42 c-24 -24 -26 -57 -4 -88 8 -12 11 -22 5
-22 -15 0 -31 34 -31 64 0 31 20 66 37 66 8 0 5 -8 -7 -20z m874 4 c31 -31 12
-114 -27 -114 -6 0 -2 6 8 14 24 17 24 69 0 96 -21 23 -4 27 19 4z m346 -49
c0 -37 -4 -65 -10 -65 -6 0 -10 28 -10 65 0 37 4 65 10 65 6 0 10 -28 10 -65z
m362 22 c9 -23 20 -53 24 -67 6 -24 6 -24 -13 -7 -27 24 -70 22 -83 -4 -16
-28 -23 -18 -11 14 9 23 15 26 39 21 36 -7 46 6 30 41 l-12 26 -18 -23 c-16
-20 -18 -20 -12 -3 3 11 8 26 10 33 7 25 30 11 46 -31z m-1367 -32 c1 -25 -2
-48 -6 -51 -5 -3 -9 21 -9 52 0 67 13 65 15 -1z m4075 18 c0 -5 -7 -26 -15
-48 -11 -32 -14 -35 -14 -15 -1 35 10 70 20 70 5 0 9 -3 9 -7z m-3313 -65 c-3
-8 -6 -5 -6 6 -1 11 2 17 5 13 3 -3 4 -12 1 -19z m-1977 -8 c0 -5 -4 -10 -10
-10 -5 0 -10 5 -10 10 0 6 5 10 10 10 6 0 10 -4 10 -10z m880 0 c0 -5 -4 -10
-10 -10 -5 0 -10 5 -10 10 0 6 5 10 10 10 6 0 10 -4 10 -10z m185 0 c-11 -5
-27 -9 -35 -9 -9 0 -8 4 5 9 11 5 27 9 35 9 9 0 8 -4 -5 -9z m265 0 c0 -5 -2
-10 -4 -10 -3 0 -8 5 -11 10 -3 6 -1 10 4 10 6 0 11 -4 11 -10z m1680 0 c0 -5
-2 -10 -4 -10 -3 0 -8 5 -11 10 -3 6 -1 10 4 10 6 0 11 -4 11 -10z m-107 -7
c-7 -2 -19 -2 -25 0 -7 3 -2 5 12 5 14 0 19 -2 13 -5z m-4192 -91 c-7 -2 -18
1 -23 6 -8 8 -4 9 13 5 13 -4 18 -8 10 -11z m-2134 -44 c-3 -8 -6 -5 -6 6 -1
11 2 17 5 13 3 -3 4 -12 1 -19z m1873 -61 c0 -2 -10 -12 -22 -23 l-23 -19 19
23 c18 21 26 27 26 19z m-50 -50 c0 -2 -12 -14 -27 -28 l-28 -24 24 28 c23 25
31 32 31 24z m5061 -24 c13 -16 12 -17 -3 -4 -10 7 -18 15 -18 17 0 8 8 3 21
-13z m-4641 -58 c6 -8 9 -23 5 -34 -3 -10 -1 -22 5 -26 22 -14 -9 -45 -45 -45
l-35 0 0 60 c0 59 0 60 29 60 16 0 34 -7 41 -15z m344 -24 c-17 -29 -17 -31 1
-51 10 -11 15 -23 11 -28 -5 -4 -15 4 -24 16 l-16 24 -17 -23 c-10 -13 -21
-20 -25 -16 -4 4 1 16 12 28 17 19 18 22 2 50 -19 33 -7 40 15 9 14 -20 14
-20 31 6 24 35 32 23 10 -15z m141 30 c3 -5 -7 -11 -22 -13 -17 -2 -28 -9 -28
-18 0 -10 8 -14 23 -13 12 2 22 -1 22 -6 0 -5 -10 -11 -22 -13 -33 -4 -28 -32
7 -39 27 -6 26 -7 -12 -8 l-43 -1 0 53 c0 30 3 57 7 60 10 10 61 8 68 -2z
m283 -7 c25 -17 31 -71 10 -92 -14 -14 -57 -16 -76 -3 -21 13 -18 82 4 98 23
17 35 16 62 -3z m146 10 c9 -3 16 -13 16 -22 0 -12 -3 -13 -12 -4 -33 33 -76
-5 -58 -52 10 -28 38 -34 59 -13 11 10 13 9 9 -2 -7 -23 -43 -31 -67 -15 -26
18 -28 69 -4 96 17 19 31 22 57 12z m156 -14 c38 -38 19 -100 -30 -100 -35 0
-60 23 -60 56 0 27 32 64 55 64 8 0 24 -9 35 -20z m140 2 c20 -16 21 -21 9
-40 -11 -18 -11 -26 -1 -42 10 -17 10 -20 -2 -20 -8 0 -18 9 -21 20 -3 11 -13
20 -21 20 -8 0 -14 -9 -14 -20 0 -11 -4 -20 -10 -20 -11 0 -14 103 -3 113 12
12 40 7 63 -11z m140 8 c0 -5 -11 -10 -24 -10 -14 0 -28 -5 -32 -11 -8 -14 14
-29 33 -22 7 3 13 0 13 -5 0 -6 -10 -12 -22 -14 -33 -4 -28 -32 7 -39 29 -6
29 -7 -7 -8 l-38 -1 0 60 0 60 35 0 c19 0 35 -4 35 -10z m124 4 c9 -3 16 -13
16 -22 0 -12 -3 -13 -12 -4 -34 34 -82 -13 -59 -57 12 -22 45 -28 56 -11 4 6
1 17 -5 25 -10 12 -9 15 9 15 17 0 21 -6 21 -30 0 -28 -2 -30 -38 -30 -47 0
-62 14 -62 56 0 23 7 38 22 48 25 18 30 19 52 10z m217 -4 c10 -6 19 -16 19
-22 0 -9 -3 -9 -12 0 -34 34 -82 -13 -59 -57 12 -22 45 -28 56 -11 4 6 1 18
-6 27 -11 13 -11 15 6 12 13 -3 21 -14 23 -32 3 -25 1 -27 -35 -27 -21 0 -45
4 -52 9 -22 14 -19 80 4 97 23 17 30 17 56 4z m149 1 c0 -5 -12 -11 -27 -13
-35 -4 -37 -30 -3 -39 24 -7 24 -7 3 -8 -35 -2 -31 -39 5 -44 22 -3 20 -4 -10
-6 l-38 -1 0 60 0 60 35 0 c19 0 35 -4 35 -9z m120 -9 c22 -18 22 -19 6 -44
-11 -17 -13 -28 -7 -33 13 -8 14 -25 2 -25 -5 0 -13 9 -16 20 -3 11 -13 20
-21 20 -8 0 -14 -9 -14 -20 0 -11 -4 -20 -10 -20 -11 0 -14 103 -3 113 12 12
40 7 63 -11z m120 3 c6 -8 10 -20 7 -27 -2 -7 0 -21 5 -31 6 -12 5 -23 -3 -33
-13 -16 -55 -19 -64 -4 -4 7 2 9 18 5 33 -9 46 22 14 34 -20 8 -20 10 -4 16 9
4 17 14 17 22 0 11 -7 13 -25 9 -25 -6 -36 8 -12 17 22 9 34 7 47 -8z m250
-56 c-16 -35 -27 -53 -24 -39 9 39 44 114 49 108 3 -3 -8 -34 -25 -69z m224
65 c28 -11 17 -24 -14 -18 -25 5 -31 2 -41 -19 -14 -31 3 -67 31 -67 26 0 35
17 19 37 -11 13 -11 15 6 12 13 -3 21 -14 23 -32 3 -25 1 -27 -35 -27 -47 0
-63 14 -63 56 0 23 7 38 22 48 25 18 30 19 52 10z m191 -4 c3 -5 -1 -10 -9
-10 -12 0 -16 -11 -16 -50 0 -27 -4 -50 -10 -50 -5 0 -10 23 -10 50 0 41 -3
50 -17 50 -15 0 -16 2 -3 10 20 13 57 13 65 0z m358 1 c22 -9 25 -15 23 -58
-1 -48 -1 -48 -38 -51 l-38 -3 0 54 c0 70 6 76 53 58z m192 -1 c19 0 26 -27
13 -55 -8 -19 -8 -28 2 -40 8 -10 9 -15 2 -15 -6 0 -16 9 -22 20 -14 26 -29
25 -40 -2 -7 -18 -9 -11 -9 33 -1 59 5 73 27 64 7 -3 20 -5 27 -5z m125 0 c0
-5 -9 -10 -19 -10 -20 0 -37 -17 -28 -26 3 -3 13 -7 24 -9 29 -6 29 -7 3 -14
-34 -10 -31 -34 5 -43 27 -6 26 -6 -9 -5 l-38 2 -4 48 c-3 42 -1 49 19 57 30
12 47 12 47 0z m101 0 c34 -19 18 -70 -23 -70 -11 0 -18 -7 -18 -20 0 -11 -4
-20 -10 -20 -5 0 -10 24 -10 54 0 44 4 55 18 59 9 3 18 5 20 6 2 0 12 -4 23
-9z m139 -10 c38 -38 19 -100 -30 -100 -35 0 -60 23 -60 56 0 27 32 64 55 64
8 0 24 -9 35 -20z m120 6 c10 -13 7 -15 -16 -13 -38 3 -40 -16 -3 -30 24 -9
30 -17 27 -35 -2 -15 -11 -24 -26 -26 -30 -5 -55 5 -47 18 4 6 13 5 25 -2 15
-10 22 -10 31 -1 9 9 5 16 -19 30 -39 22 -46 38 -26 58 19 19 38 19 54 1z
m180 5 c0 -5 -7 -11 -15 -15 -10 -3 -16 -21 -17 -53 l-2 -48 -3 48 c-3 30 -10
50 -19 54 -25 9 -15 19 21 21 19 2 35 -2 35 -7z m120 -11 c37 -37 19 -100 -28
-100 -36 0 -52 17 -52 55 0 34 8 49 30 58 25 9 29 8 50 -13z m107 14 c27 -7
36 -29 23 -55 -8 -13 -7 -25 0 -39 7 -13 7 -20 0 -20 -5 0 -15 9 -22 20 -16
26 -24 25 -34 -2 -6 -18 -8 -13 -11 26 -6 73 0 82 44 70z m-4103 -26 l15 -21
20 24 c24 28 29 5 6 -25 -8 -11 -15 -30 -15 -43 0 -13 -4 -23 -10 -23 -5 0
-10 10 -10 21 0 12 -9 37 -21 55 -23 37 -10 48 15 12z m491 3 c3 -10 14 -26
25 -36 20 -18 20 -17 20 18 0 21 5 37 10 37 6 0 10 -25 10 -55 0 -67 -17 -73
-52 -17 l-23 37 -3 -37 c-5 -58 -22 -45 -22 17 0 41 4 55 14 55 8 0 17 -8 21
-19z m995 -36 c0 -30 -4 -55 -10 -55 -5 0 -10 25 -10 55 0 30 5 55 10 55 6 0
10 -25 10 -55z m610 0 c0 -30 -4 -55 -10 -55 -5 0 -10 20 -10 45 0 25 -5 45
-11 45 -5 0 -7 5 -4 10 3 6 13 10 21 10 10 0 14 -14 14 -55z m460 0 c0 -30 -4
-55 -10 -55 -5 0 -10 25 -10 55 0 30 5 55 10 55 6 0 10 -25 10 -55z m183 13
c4 1 14 2 22 2 8 0 15 9 15 20 0 11 5 20 10 20 6 0 10 -25 10 -55 0 -30 -4
-55 -10 -55 -5 0 -10 12 -10 26 0 22 -4 25 -27 22 -16 -2 -27 -10 -29 -21 -6
-43 -14 -26 -14 29 0 54 1 57 13 34 7 -14 16 -24 20 -22z m115 -4 c-2 -38 13
-60 36 -51 11 5 16 20 16 52 0 25 5 45 11 45 6 0 9 -19 7 -46 -3 -53 -21 -70
-61 -60 -25 6 -27 11 -27 57 0 32 4 48 10 44 6 -4 9 -22 8 -41z m912 -9 c0
-30 -4 -55 -10 -55 -5 0 -10 25 -10 55 0 30 5 55 10 55 6 0 10 -25 10 -55z
m425 35 c8 -26 21 -25 35 1 7 11 14 18 17 16 2 -3 -3 -19 -11 -36 -9 -16 -16
-39 -16 -51 0 -11 -4 -20 -10 -20 -5 0 -10 13 -10 28 0 16 -7 37 -15 48 -17
22 -19 34 -6 34 5 0 13 -9 16 -20z m2511 -107 c-10 -10 -19 5 -10 18 6 11 8
11 12 0 2 -7 1 -15 -2 -18z m-4576 -88 c119 -62 147 -235 53 -328 -101 -102
-269 -73 -335 56 -53 106 7 245 123 282 48 16 118 11 159 -10z m3057 -1 c-3
-3 -12 -4 -19 -1 -8 3 -5 6 6 6 11 1 17 -2 13 -5z m-7528 -64 c-30 -29 -31
-50 -4 -50 7 0 16 -7 19 -15 4 -11 0 -15 -12 -13 -11 2 -17 -4 -17 -17 0 -15
6 -19 23 -17 12 2 22 -2 22 -7 0 -6 -11 -11 -25 -11 -28 0 -29 -3 -15 -31 6
-10 7 -19 2 -19 -13 0 -41 33 -62 75 l-19 37 48 49 c27 27 53 49 59 49 6 0 -3
-13 -19 -30z m87 5 c-21 -16 -32 -13 -21 4 3 6 14 11 23 11 15 -1 15 -2 -2
-15z m-41 -35 c-3 -5 -16 -10 -28 -9 -21 0 -21 1 -2 9 28 12 37 12 30 0z
m7292 -57 c13 -10 11 -13 -7 -23 -18 -10 -25 -9 -38 4 -14 14 -14 17 3 36 14
16 21 18 23 8 3 -7 11 -18 19 -25z m-7613 -114 c-3 -5 -10 -7 -15 -3 -5 3 -7
10 -3 15 3 5 10 7 15 3 5 -3 7 -10 3 -15z m381 -37 c-7 -8 -35 7 -35 18 0 6 7
6 20 -2 10 -7 17 -14 15 -16z m60 -9 c18 -14 18 -15 2 -9 -10 3 -25 6 -33 6
-9 0 -12 5 -9 10 8 14 16 12 40 -7z m8404 -17 c-2 -2 -17 -6 -34 -10 -22 -5
-26 -4 -15 4 14 9 59 15 49 6z m-742 -32 c-3 -3 -12 -4 -19 -1 -8 3 -5 6 6 6
11 1 17 -2 13 -5z m80 -10 c-3 -3 -12 -4 -19 -1 -8 3 -5 6 6 6 11 1 17 -2 13
-5z m-7604 -11 c-7 -2 -21 -2 -30 0 -10 3 -4 5 12 5 17 0 24 -2 18 -5z m7670
0 c-7 -2 -21 -2 -30 0 -10 3 -4 5 12 5 17 0 24 -2 18 -5z m-7458 -23 c3 -5 -1
-10 -10 -10 -9 0 -13 5 -10 10 3 6 8 10 10 10 2 0 7 -4 10 -10z m65 -10 c0 -5
-4 -10 -10 -10 -5 0 -10 5 -10 10 0 6 5 10 10 10 6 0 10 -4 10 -10z m2367
-142 c-2 -18 -4 -6 -4 27 0 33 2 48 4 33 2 -15 2 -42 0 -60z m215 15 c2 -24 0
-43 -4 -43 -5 0 -7 26 -7 58 1 61 6 55 11 -15z m658 58 c0 -5 -7 -17 -17 -26
-15 -16 -15 -19 0 -45 10 -15 17 -31 17 -35 0 -8 -41 43 -57 72 -18 31 -16 42
3 18 15 -20 16 -20 32 2 19 25 22 27 22 14z m431 -8 c12 -16 12 -17 -1 -7 -8
7 -24 14 -35 17 -19 4 -19 5 1 6 12 0 28 -7 35 -16z m390 0 c12 -16 12 -17 -1
-7 -8 6 -22 14 -30 17 -13 5 -12 6 1 6 9 1 23 -7 30 -16z m-2389 -41 l-6 -27
-6 25 c-8 30 -1 58 10 40 4 -6 5 -23 2 -38z m1929 21 c-12 -20 -14 -14 -5 12
4 9 9 14 11 11 3 -2 0 -13 -6 -23z m397 2 c-15 -33 2 -72 34 -78 22 -4 22 -4
1 -6 -43 -2 -66 46 -43 90 15 28 22 23 8 -6z m489 -4 c-3 -15 -1 -33 5 -39 8
-8 8 -15 -2 -27 -13 -16 -46 -20 -54 -6 -3 4 5 6 18 4 31 -6 45 16 20 34 -15
11 -16 15 -5 22 8 5 11 16 8 25 -4 9 -1 16 5 16 6 0 8 -11 5 -29z m73 -18 c0
-25 -2 -44 -4 -42 -8 10 -13 89 -5 89 5 0 9 -21 9 -47z m209 -10 c-1 -44 -3
-51 -8 -28 -6 29 -3 85 5 85 2 0 3 -26 3 -57z m148 -25 c-2 -18 -4 -6 -4 27 0
33 2 48 4 33 2 -15 2 -42 0 -60z m245 70 c-14 -14 -16 -57 -3 -77 6 -10 19
-12 42 -7 24 4 30 3 19 -4 -21 -13 -54 -12 -68 2 -23 23 -10 98 17 98 3 0 0
-5 -7 -12z m212 -40 c1 -37 4 -43 24 -46 18 -3 22 1 22 22 0 14 -8 30 -17 36
-16 10 -16 10 2 8 16 -3 20 -11 20 -38 0 -32 -3 -35 -32 -38 l-33 -3 0 57 c0
65 13 67 14 2z m-3774 26 c0 -8 -4 -12 -10 -9 -5 3 -10 10 -10 16 0 5 5 9 10
9 6 0 10 -7 10 -16z m710 6 c0 -5 -5 -10 -11 -10 -5 0 -7 5 -4 10 3 6 8 10 11
10 2 0 4 -4 4 -10z m3840 -8 c0 -13 -12 -22 -22 -16 -10 6 -1 24 13 24 5 0 9
-4 9 -8z m-4418 -56 c0 -26 -2 -50 -6 -53 -3 -4 -6 20 -6 52 0 69 10 69 12 1z
m696 8 c-3 -27 -4 -26 -9 8 -3 22 -1 34 4 29 5 -5 7 -21 5 -37z m102 11 c0
-19 -4 -35 -8 -35 -4 0 -6 16 -4 35 2 19 6 35 8 35 2 0 4 -16 4 -35z m757 15
c-3 -21 -17 -40 -17 -22 0 13 11 42 16 42 2 0 3 -9 1 -20z m51 -11 c-3 -8 -7
-3 -11 10 -4 17 -3 21 5 13 5 -5 8 -16 6 -23z m49 -21 c-2 -13 -4 -5 -4 17 -1
22 1 32 4 23 2 -10 2 -28 0 -40z m345 40 c-19 -19 -14 -48 11 -58 13 -5 16 -9
7 -9 -22 -1 -40 19 -40 44 0 24 8 35 24 35 6 0 5 -5 -2 -12z m95 -50 c-2 -13
-4 -3 -4 22 0 25 2 35 4 23 2 -13 2 -33 0 -45z m121 40 c2 -10 -1 -18 -7 -18
-6 0 -8 6 -5 14 4 9 -3 16 -18 19 -22 5 -22 5 2 4 15 -1 26 -9 28 -19z m169
-40 c-2 -13 -4 -3 -4 22 0 25 2 35 4 23 2 -13 2 -33 0 -45z m113 25 c0 -18 -5
-33 -11 -33 -6 0 -8 9 -4 20 4 12 2 27 -4 34 -8 9 -7 13 4 13 10 0 15 -11 15
-34z m53 25 c-17 -24 -9 -52 17 -59 21 -6 22 -7 5 -8 -27 -1 -45 17 -45 44 0
23 8 35 23 35 6 0 6 -5 0 -12z m44 -14 c2 -13 1 -15 -4 -4 -3 8 -11 19 -17 23
-7 6 -6 7 4 4 8 -2 16 -12 17 -23z m44 -7 c-8 -8 -11 -7 -11 4 0 20 13 34 18
19 3 -7 -1 -17 -7 -23z m329 23 c0 -5 10 -11 23 -11 20 -1 20 -2 2 -6 -11 -3
-23 -10 -27 -17 -6 -8 -8 -8 -8 1 0 6 -3 18 -6 27 -3 9 -1 16 5 16 6 0 11 -4
11 -10z m168 -32 c3 -36 2 -38 -27 -38 -23 0 -31 4 -30 18 0 10 3 12 6 5 2 -7
13 -13 24 -13 30 0 27 57 -3 63 -20 5 -20 5 2 4 21 -2 25 -8 28 -39z m662 16
c0 -22 -16 -17 -17 6 -1 11 2 18 8 15 5 -4 9 -13 9 -21z m344 18 c3 -5 -5 -8
-17 -8 -29 1 -38 -50 -10 -57 15 -3 14 -4 -2 -3 -24 1 -34 54 -13 67 17 11 35
11 42 1z m-2327 -24 c-3 -8 -6 -5 -6 6 -1 11 2 17 5 13 3 -3 4 -12 1 -19z
m346 -15 c-3 -7 5 -17 18 -22 14 -6 18 -10 9 -10 -23 -1 -40 19 -40 49 0 18 3
21 9 11 5 -8 7 -20 4 -28z m1072 10 c0 -19 6 -29 19 -31 23 -5 37 16 30 43 -4
18 -4 18 6 3 8 -13 8 -23 0 -38 -21 -39 -82 -7 -67 34 9 23 13 20 12 -11z
m315 17 c0 -5 -2 -10 -4 -10 -3 0 -8 5 -11 10 -3 6 -1 10 4 10 6 0 11 -4 11
-10z m195 -11 c-6 -29 -15 -37 -15 -12 0 17 8 33 16 33 2 0 1 -10 -1 -21z m98
-11 c-8 -46 -13 -48 -13 -5 0 21 4 37 10 37 5 0 7 -14 3 -32z m71 16 c3 -8 2
-12 -4 -9 -6 3 -10 10 -10 16 0 14 7 11 14 -7z m146 -5 c0 -5 -8 -9 -17 -8
-11 0 -13 3 -5 6 6 2 9 10 6 15 -4 7 -2 8 4 4 7 -4 12 -11 12 -17z m250 17 c0
-2 -7 -6 -15 -10 -8 -3 -15 -1 -15 4 0 6 7 10 15 10 8 0 15 -2 15 -4z m168
-21 c-3 -3 -9 2 -12 12 -6 14 -5 15 5 6 7 -7 10 -15 7 -18z m-2138 5 c0 -5 -7
-7 -15 -4 -8 4 -15 8 -15 10 0 2 7 4 15 4 8 0 15 -4 15 -10z m1683 -43 c18 -3
17 -4 -3 -3 -19 1 -25 7 -26 26 -1 20 0 21 3 3 3 -13 13 -23 26 -26z m-1583 8
c0 -5 -5 -3 -10 5 -5 8 -10 20 -10 25 0 6 5 3 10 -5 5 -8 10 -19 10 -25z
m-1541 -6 c-24 -15 -30 -10 -11 9 9 10 19 14 21 9 2 -5 -3 -13 -10 -18z m554
16 c-3 -9 -8 -14 -10 -11 -3 3 -2 9 2 15 9 16 15 13 8 -4z m2118 1 c11 6 11
-4 -1 -31 -7 -16 -9 -17 -9 -3 -1 9 -3 22 -4 30 -2 7 -2 10 0 5 3 -4 9 -5 14
-1z m716 -18 c-3 -7 -5 -2 -5 12 0 14 2 19 5 13 2 -7 2 -19 0 -25z m137 -1 c7
-6 6 -7 -4 -4 -8 2 -16 12 -17 23 -2 13 -1 15 4 4 3 -8 11 -19 17 -23z m-3954
13 c0 -5 -5 -10 -11 -10 -5 0 -7 5 -4 10 3 6 8 10 11 10 2 0 4 -4 4 -10z
m1445 -8 c17 4 23 2 17 -4 -14 -14 -55 -6 -59 12 -4 12 -3 13 5 1 6 -8 20 -12
37 -9z m2304 -9 c2 -2 -3 -3 -11 -3 -9 0 -19 7 -22 16 -6 15 -4 15 11 3 10 -7
20 -15 22 -16z m281 3 c0 -7 -6 -20 -13 -30 -12 -16 -13 -14 -9 18 4 32 22 43
22 12z m-3475 -4 c-3 -3 -11 0 -18 7 -9 10 -8 11 6 5 10 -3 15 -9 12 -12z
m556 0 c-7 -2 -18 1 -23 6 -8 8 -4 9 13 5 13 -4 18 -8 10 -11z m224 8 c-3 -5
-14 -10 -23 -9 -14 0 -13 2 3 9 27 11 27 11 20 0z m2445 0 c0 -5 -4 -10 -10
-10 -5 0 -10 5 -10 10 0 6 5 10 10 10 6 0 10 -4 10 -10z m-5082 -12 c-3 -7
-11 -13 -18 -13 -7 0 -15 6 -17 13 -3 7 4 12 17 12 13 0 20 -5 18 -12z m4615
5 c-7 -2 -19 -2 -25 0 -7 3 -2 5 12 5 14 0 19 -2 13 -5z m160 0 c-7 -2 -21 -2
-30 0 -10 3 -4 5 12 5 17 0 24 -2 18 -5z m1235 -100 c2 -8 -5 -13 -17 -13 -12
0 -21 6 -21 16 0 18 31 15 38 -3z"/>
<path d="M8690 6710 c0 -5 11 -10 24 -10 14 0 28 5 31 10 4 6 -7 10 -24 10
-17 0 -31 -4 -31 -10z"/>
<path d="M8510 6700 c-13 -9 -13 -10 0 -10 8 0 22 5 30 10 13 9 13 10 0 10 -8
0 -22 -5 -30 -10z"/>
<path d="M5117 6553 c-7 -7 3 -33 13 -33 14 0 19 28 5 33 -7 3 -15 3 -18 0z"/>
<path d="M6193 6519 c-15 -5 -21 -14 -17 -24 8 -20 24 -19 24 1 0 8 4 13 9 9
5 -3 12 -1 15 4 9 15 -6 20 -31 10z"/>
<path d="M6917 6383 c-37 -89 -71 -213 -60 -224 12 -12 127 -18 138 -7 16 16
4 116 -20 176 -14 34 -25 68 -25 77 0 27 -17 16 -33 -22z"/>
<path d="M9456 6535 c4 -8 13 -15 21 -15 13 0 13 3 3 15 -7 8 -16 15 -21 15
-5 0 -6 -7 -3 -15z"/>
<path d="M3543 5133 c15 -2 37 -2 50 0 12 2 0 4 -28 4 -27 0 -38 -2 -22 -4z"/>
<path d="M3470 4961 c0 -25 6 -27 13 -6 4 8 2 17 -3 20 -6 4 -10 -3 -10 -14z"/>
<path d="M3424 4858 c-35 -59 -37 -64 -14 -35 12 15 26 25 31 21 5 -3 9 -1 9
5 0 16 -18 22 -26 9z"/>
<path d="M3365 4787 c-4 -8 -20 -21 -36 -27 -16 -7 -29 -19 -29 -28 0 -12 6
-10 25 8 14 13 25 19 25 15 0 -5 7 1 16 13 9 13 13 26 10 29 -3 3 -8 -1 -11
-10z"/>
<path d="M3260 4720 c-8 -5 -10 -10 -5 -10 6 0 17 5 25 10 8 5 11 10 5 10 -5
0 -17 -5 -25 -10z"/>
<path d="M3130 4700 l-75 -6 87 -2 c49 -1 90 2 93 8 3 6 -2 9 -12 8 -10 -1
-52 -4 -93 -8z"/>
<path d="M3028 4693 c7 -3 16 -2 19 1 4 3 -2 6 -13 5 -11 0 -14 -3 -6 -6z"/>
<path d="M4223 5574 c-7 -19 4 -44 19 -44 23 0 41 17 35 33 -8 20 -47 29 -54
11z"/>
<path d="M4401 5571 c-35 -35 -20 -91 23 -91 49 0 62 69 19 97 -19 13 -24 12
-42 -6z"/>
<path d="M4986 5582 c-3 -3 -6 -14 -6 -24 0 -13 7 -18 25 -18 18 0 25 5 25 19
0 18 -33 35 -44 23z"/>
<path d="M5316 5583 c-3 -4 -6 -28 -6 -55 0 -43 2 -48 23 -48 13 0 28 5 35 12
16 16 15 63 0 75 -19 15 -45 22 -52 16z"/>
<path d="M5587 5584 c-17 -17 -5 -34 23 -34 20 0 30 5 30 15 0 8 -4 15 -9 15
-5 0 -16 2 -23 5 -8 3 -17 2 -21 -1z"/>
<path d="M5580 5500 c0 -16 7 -20 30 -20 23 0 30 4 30 20 0 16 -7 20 -30 20
-23 0 -30 -4 -30 -20z"/>
<path d="M4920 5187 c-81 -40 -131 -146 -115 -244 30 -177 219 -252 358 -143
92 72 102 261 19 346 -65 65 -177 83 -262 41z m97 -3 c-3 -3 -12 -4 -19 -1 -8
3 -5 6 6 6 11 1 17 -2 13 -5z"/>
<path d="M5795 5191 c-44 -20 -72 -47 -104 -101 -16 -27 -21 -52 -21 -108 0
-85 19 -132 76 -181 47 -42 73 -51 144 -51 222 0 290 341 87 439 -54 26 -128
27 -182 2z"/>
<path d="M6039 4783 c-8 -9 -27 -21 -43 -28 l-28 -12 25 -5 c17 -3 24 -1 20 5
-4 6 0 8 11 4 11 -4 15 -3 11 4 -4 6 1 19 11 30 9 10 15 19 12 19 -3 0 -12 -7
-19 -17z"/>
<path d="M5768 4743 c7 -3 16 -2 19 1 4 3 -2 6 -13 5 -11 0 -14 -3 -6 -6z"/>
<path d="M5868 4713 c6 -2 18 -2 25 0 6 3 1 5 -13 5 -14 0 -19 -2 -12 -5z"/>
<path d="M6118 4553 c7 -3 16 -2 19 1 4 3 -2 6 -13 5 -11 0 -14 -3 -6 -6z"/>
<path d="M5646 4514 c-11 -8 -16 -14 -10 -14 13 0 39 18 34 24 -3 2 -14 -2
-24 -10z"/>
<path d="M6081 4502 c-26 -37 -23 -40 8 -12 13 10 21 25 19 31 -2 7 -14 -1
-27 -19z"/>
<path d="M6206 4513 c-6 -14 -5 -15 5 -6 7 7 10 15 7 18 -3 3 -9 -2 -12 -12z"/>
<path d="M5703 4490 c1 -12 10 -26 20 -32 28 -15 29 -5 2 26 -22 26 -24 26
-22 6z"/>
<path d="M5595 4490 c-3 -6 1 -7 9 -4 18 7 21 14 7 14 -6 0 -13 -4 -16 -10z"/>
<path d="M6175 4480 c3 -5 8 -10 11 -10 2 0 4 5 4 10 0 6 -5 10 -11 10 -5 0
-7 -4 -4 -10z"/>
<path d="M5995 4437 c-22 -12 -60 -25 -85 -29 -42 -6 -41 -7 10 -3 30 2 65 6
76 9 27 6 64 28 64 38 0 12 -22 7 -65 -15z"/>
<path d="M5760 4440 c0 -5 5 -10 11 -10 5 0 7 5 4 10 -3 6 -8 10 -11 10 -2 0
-4 -4 -4 -10z"/>
<path d="M6145 4430 c-3 -5 -1 -10 4 -10 6 0 11 5 11 10 0 6 -2 10 -4 10 -3 0
-8 -4 -11 -10z"/>
<path d="M5790 4415 c0 -8 8 -15 18 -15 13 0 14 2 3 9 -11 7 -11 9 0 14 10 4
9 6 -3 6 -10 1 -18 -6 -18 -14z"/>
<path d="M6076 4383 c-6 -14 -5 -15 5 -6 7 7 10 15 7 18 -3 3 -9 -2 -12 -12z"/>
<path d="M5808 4373 c6 -2 18 -2 25 0 6 3 1 5 -13 5 -14 0 -19 -2 -12 -5z"/>
<path d="M6008 4363 c7 -3 16 -2 19 1 4 3 -2 6 -13 5 -11 0 -14 -3 -6 -6z"/>
<path d="M4458 4293 c7 -3 16 -2 19 1 4 3 -2 6 -13 5 -11 0 -14 -3 -6 -6z"/>
<path d="M4613 4293 c26 -2 68 -2 95 0 26 2 4 3 -48 3 -52 0 -74 -1 -47 -3z"/>
<path d="M4025 4269 c-264 -18 -383 -31 -220 -24 467 22 591 29 598 35 13 11
-104 8 -378 -11z"/>
<path d="M3493 4213 c9 -2 25 -2 35 0 9 3 1 5 -18 5 -19 0 -27 -2 -17 -5z"/>
<path d="M3373 4203 c9 -2 25 -2 35 0 9 3 1 5 -18 5 -19 0 -27 -2 -17 -5z"/>
<path d="M3288 4193 c7 -3 16 -2 19 1 4 3 -2 6 -13 5 -11 0 -14 -3 -6 -6z"/>
<path d="M2943 4143 c9 -2 23 -2 30 0 6 3 -1 5 -18 5 -16 0 -22 -2 -12 -5z"/>
<path d="M2875 4103 c-22 -2 -49 -7 -60 -12 -11 -5 -58 -16 -105 -26 -124 -25
-203 -60 -208 -94 -4 -27 -17 -27 -19 -1 -1 11 12 31 29 45 17 14 29 28 26 30
-8 8 -68 -19 -68 -31 0 -7 -8 -10 -19 -7 -10 3 -22 -1 -26 -8 -6 -8 -4 -10 5
-4 9 6 11 4 6 -4 -5 -7 -14 -10 -21 -7 -18 6 -28 -23 -15 -40 13 -15 126 -55
134 -47 3 3 -5 14 -17 24 -13 11 1 7 34 -10 43 -23 89 -35 192 -50 74 -12 142
-21 149 -21 15 0 48 145 48 208 0 34 -9 63 -19 60 -3 -1 -24 -3 -46 -5z"/>
<path d="M2564 4054 c-18 -14 -18 -14 6 -3 31 14 36 19 24 19 -6 0 -19 -7 -30
-16z"/>
<path d="M6344 3881 c-26 -6 -94 -46 -94 -54 0 -1 57 3 128 10 70 6 134 12
142 13 9 0 4 7 -11 15 -33 18 -124 27 -165 16z"/>
<path d="M2708 3833 c6 -2 18 -2 25 0 6 3 1 5 -13 5 -14 0 -19 -2 -12 -5z"/>
<path d="M4557 3826 c-12 -30 -8 -56 8 -56 16 0 18 23 6 54 -7 18 -8 18 -14 2z"/>
<path d="M2803 3823 c9 -2 25 -2 35 0 9 3 1 5 -18 5 -19 0 -27 -2 -17 -5z"/>
<path d="M6345 3810 c-16 -7 -11 -9 20 -9 22 0 47 4 55 9 19 13 -46 13 -75 0z"/>
<path d="M3235 3779 c-12 -5 9 -8 55 -8 80 1 83 5 10 12 -25 2 -54 0 -65 -4z"/>
<path d="M6440 3780 c-41 -4 -107 -8 -146 -9 -70 -1 -72 -2 -84 -32 -9 -21
-11 -59 -6 -131 8 -133 35 -201 94 -243 41 -28 51 -30 145 -33 93 -3 105 -2
136 20 55 37 90 88 97 141 6 41 5 47 -10 41 -11 -4 -16 -1 -16 10 0 9 5 16 11
16 23 0 -10 178 -39 213 -16 18 -46 20 -182 7z m207 -142 c-3 -8 -6 -5 -6 6
-1 11 2 17 5 13 3 -3 4 -12 1 -19z"/>
<path d="M5675 3770 c-8 -13 95 -13 115 0 11 7 -3 10 -47 10 -34 0 -65 -4 -68
-10z"/>
<path d="M5838 3773 c18 -2 45 -2 60 0 15 2 0 4 -33 4 -33 0 -45 -2 -27 -4z"/>
<path d="M3463 3763 c31 -2 83 -2 115 0 31 2 5 3 -58 3 -63 0 -89 -1 -57 -3z"/>
<path d="M5460 3766 c0 -10 28 -13 41 -5 10 6 7 9 -13 9 -16 0 -28 -2 -28 -4z"/>
<path d="M5558 3763 c17 -2 47 -2 65 0 17 2 3 4 -33 4 -36 0 -50 -2 -32 -4z"/>
<path d="M3960 3750 c35 -11 82 -11 100 0 10 7 -6 9 -55 9 -50 -1 -63 -3 -45
-9z"/>
<path d="M4098 3753 c6 -2 18 -2 25 0 6 3 1 5 -13 5 -14 0 -19 -2 -12 -5z"/>
<path d="M4986 3750 c6 -6 34 -6 74 -1 l65 8 -74 2 c-48 1 -72 -2 -65 -9z"/>
<path d="M5148 3753 c6 -2 18 -2 25 0 6 3 1 5 -13 5 -14 0 -19 -2 -12 -5z"/>
<path d="M3192 3745 c7 -8 87 -9 95 -2 3 4 -18 7 -47 7 -29 0 -51 -2 -48 -5z"/>
<path d="M4568 3743 c7 -3 16 -2 19 1 4 3 -2 6 -13 5 -11 0 -14 -3 -6 -6z"/>
<path d="M4499 3673 c-11 -26 -34 -74 -51 -106 -16 -32 -27 -61 -23 -65 12
-12 275 -10 275 2 -1 6 -20 56 -44 111 l-43 100 -47 3 -47 3 -20 -48z"/>
<path d="M6790 3489 c0 -5 5 -7 10 -4 6 3 10 8 10 11 0 2 -4 4 -10 4 -5 0 -10
-5 -10 -11z"/>
<path d="M4530 3437 c0 -13 -5 -28 -12 -35 -9 -9 -8 -16 5 -29 16 -16 18 -16
31 2 13 18 13 22 -1 37 -8 10 -13 24 -10 33 4 8 2 15 -3 15 -6 0 -10 -10 -10
-23z"/>
<path d="M3745 3390 c3 -5 8 -10 11 -10 2 0 4 5 4 10 0 6 -5 10 -11 10 -5 0
-7 -4 -4 -10z"/>
<path d="M4875 3390 c3 -5 8 -10 11 -10 2 0 4 5 4 10 0 6 -5 10 -11 10 -5 0
-7 -4 -4 -10z"/>
<path d="M5341 3384 c0 -11 3 -14 6 -6 3 7 2 16 -1 19 -3 4 -6 -2 -5 -13z"/>
<path d="M6125 3371 c-3 -5 -1 -12 5 -16 5 -3 10 1 10 9 0 18 -6 21 -15 7z"/>
<path d="M5435 3330 c-3 -5 -2 -10 4 -10 5 0 13 5 16 10 3 6 2 10 -4 10 -5 0
-13 -4 -16 -10z"/>
<path d="M4175 3321 c-3 -5 -1 -12 5 -16 5 -3 10 1 10 9 0 18 -6 21 -15 7z"/>
<path d="M2948 3275 c-6 -30 -3 -43 8 -33 3 4 4 19 2 35 l-3 28 -7 -30z"/>
<path d="M3725 3260 c-3 -5 -1 -10 4 -10 6 0 11 5 11 10 0 6 -2 10 -4 10 -3 0
-8 -4 -11 -10z"/>
<path d="M4937 3240 c-5 -21 1 -24 27 -14 17 7 10 34 -9 34 -7 0 -15 -9 -18
-20z"/>
<path d="M4145 3240 c-3 -6 1 -7 9 -4 18 7 21 14 7 14 -6 0 -13 -4 -16 -10z"/>
<path d="M5455 3220 c3 -5 10 -10 16 -10 5 0 9 5 9 10 0 6 -7 10 -16 10 -8 0
-12 -4 -9 -10z"/>
<path d="M5870 3210 c0 -11 2 -20 4 -20 2 0 6 9 9 20 3 11 1 20 -4 20 -5 0 -9
-9 -9 -20z"/>
<path d="M5030 3209 c0 -5 5 -7 10 -4 6 3 10 8 10 11 0 2 -4 4 -10 4 -5 0 -10
-5 -10 -11z"/>
<path d="M6460 3200 c0 -25 16 -44 25 -30 4 7 0 19 -9 28 -13 14 -16 14 -16 2z"/>
<path d="M1305 3890 c3 -5 8 -10 11 -10 2 0 4 5 4 10 0 6 -5 10 -11 10 -5 0
-7 -4 -4 -10z"/>
<path d="M255 3910 c-3 -5 -1 -10 4 -10 6 0 11 5 11 10 0 6 -2 10 -4 10 -3 0
-8 -4 -11 -10z"/>
<path d="M1350 2957 c-25 -7 -56 -20 -70 -29 -13 -10 -29 -18 -34 -18 -5 0
-31 -23 -58 -51 -60 -61 -100 -144 -104 -216 -4 -62 -23 -109 -24 -57 0 19 -6
34 -15 38 -13 5 -15 -13 -15 -119 0 -104 2 -125 15 -125 9 0 15 9 15 25 0 14
5 25 10 25 6 0 10 -13 10 -30 0 -26 4 -30 28 -30 l27 0 -3 128 c-3 96 0 145
12 192 38 147 165 236 315 223 86 -8 84 -19 -2 -15 -40 2 -83 -1 -97 -7 -19
-8 -11 -9 40 -5 56 5 73 2 124 -21 46 -20 61 -23 67 -13 4 7 11 9 15 5 4 -3 1
-13 -5 -21 -10 -12 -7 -24 16 -63 26 -45 28 -56 32 -186 l3 -138 42 3 41 3 0
105 c1 157 -9 205 -61 303 -8 15 -19 27 -24 27 -5 0 -12 9 -15 21 -4 11 -13
18 -20 15 -7 -2 -16 1 -18 8 -10 26 -178 41 -247 23z m-270 -482 c0 -8 -4 -15
-10 -15 -5 0 -10 7 -10 15 0 8 5 15 10 15 6 0 10 -7 10 -15z"/>
<path d="M1270 2850 c-8 -5 -12 -12 -9 -15 4 -3 12 1 19 10 14 17 11 19 -10 5z"/>
<path d="M1294 2828 c-91 -62 -128 -151 -122 -298 1 -49 6 -91 9 -95 7 -6 377
42 392 52 6 3 8 56 5 122 -6 142 -18 171 -92 229 -46 36 -130 31 -192 -10z"/>
<path d="M1520 2834 c38 -32 54 -62 74 -139 10 -41 12 -63 5 -71 -7 -9 -4 -19
12 -35 l22 -22 -5 79 c-6 96 -25 140 -80 182 -50 38 -73 43 -28 6z"/>
<path d="M1201 2777 c-13 -21 -12 -21 5 -5 10 10 16 20 13 22 -3 3 -11 -5 -18
-17z"/>
<path d="M1161 2694 c0 -11 3 -14 6 -6 3 7 2 16 -1 19 -3 4 -6 -2 -5 -13z"/>
<path d="M1040 2670 c0 -16 4 -30 9 -30 5 0 11 14 13 30 3 20 0 30 -9 30 -8 0
-13 -12 -13 -30z"/>
<path d="M1152 2650 c0 -14 2 -19 5 -12 2 6 2 18 0 25 -3 6 -5 1 -5 -13z"/>
<path d="M1752 2573 c0 -35 4 -63 9 -63 11 0 11 78 -1 105 -5 14 -8 0 -8 -42z"/>
<path d="M1153 2560 c0 -30 2 -43 4 -27 2 15 2 39 0 55 -2 15 -4 2 -4 -28z"/>
<path d="M1592 2528 c2 -12 11 -24 21 -26 14 -3 18 1 15 20 -2 12 -11 24 -21
26 -14 3 -18 -1 -15 -20z"/>
<path d="M997 2503 c-11 -10 -8 -101 3 -108 6 -4 10 17 10 54 0 62 -1 66 -13
54z"/>
<path d="M1610 2470 c0 -5 5 -10 11 -10 5 0 7 5 4 10 -3 6 -8 10 -11 10 -2 0
-4 -4 -4 -10z"/>
<path d="M1584 2449 c-9 -15 1 -21 26 -17 21 3 21 3 1 15 -14 9 -22 9 -27 2z"/>
<path d="M1698 2423 c6 -2 18 -2 25 0 6 3 1 5 -13 5 -14 0 -19 -2 -12 -5z"/>
<path d="M1265 2410 c3 -5 8 -10 11 -10 2 0 4 5 4 10 0 6 -5 10 -11 10 -5 0
-7 -4 -4 -10z"/>
<path d="M1518 2413 c7 -3 16 -2 19 1 4 3 -2 6 -13 5 -11 0 -14 -3 -6 -6z"/>
<path d="M1738 2383 c-16 -2 -28 -8 -28 -12 0 -5 -20 -6 -44 -4 -25 3 -66 -2
-99 -11 -30 -9 -70 -16 -89 -16 -19 0 -43 -6 -54 -14 -11 -9 -30 -12 -46 -9
-16 3 -35 0 -44 -8 -17 -14 -63 -19 -70 -7 -2 4 -14 4 -27 1 -12 -3 -47 -7
-78 -10 -41 -4 -63 -12 -86 -32 -36 -31 -33 -1 -39 -389 -3 -204 -1 -249 12
-273 8 -17 22 -33 30 -36 13 -5 13 -7 2 -14 -10 -7 -10 -9 2 -9 8 -1 5 -5 -8
-11 -13 -5 -21 -13 -17 -18 7 -12 64 -9 84 3 8 5 32 11 55 13 24 2 47 11 55
21 9 11 15 13 18 5 2 -7 11 -9 20 -6 8 3 18 0 23 -7 6 -9 14 -8 36 6 26 18 28
18 21 1 -8 -21 1 -21 41 -1 18 8 32 23 32 31 0 14 2 14 19 -1 20 -18 69 -13
83 8 9 14 98 17 98 3 0 -6 7 -2 15 9 15 19 15 19 9 -1 -4 -15 -1 -13 10 5 12
21 16 22 21 9 6 -16 50 -15 60 2 3 4 12 6 20 3 8 -3 22 1 30 10 9 9 22 16 29
16 7 0 20 8 29 18 15 16 16 54 14 351 -1 222 -6 334 -13 339 -6 4 -13 15 -17
25 -6 17 -41 20 -109 10z m-258 -188 c0 -8 8 -15 18 -15 35 0 74 -55 80 -110
4 -42 0 -56 -22 -90 -27 -41 -33 -66 -16 -72 5 -1 12 -38 15 -80 5 -69 4 -78
-14 -87 -11 -6 -29 -11 -40 -11 -12 0 -21 -3 -21 -8 0 -4 -27 -9 -61 -10 l-60
-3 2 53 c1 29 5 60 9 68 11 21 19 99 11 102 -16 8 -41 70 -41 103 0 56 40 117
88 136 12 5 22 15 22 24 0 8 7 15 15 15 8 0 15 -7 15 -15z m390 -335 c0 -5 -4
-10 -10 -10 -5 0 -10 5 -10 10 0 6 5 10 10 10 6 0 10 -4 10 -10z m-390 -220
c0 -5 -4 -10 -9 -10 -6 0 -13 5 -16 10 -3 6 1 10 9 10 9 0 16 -4 16 -10z
m-130 -25 c0 -8 -4 -15 -10 -15 -5 0 -10 7 -10 15 0 8 5 15 10 15 6 0 10 -7
10 -15z m-194 -52 c-10 -10 -19 5 -10 18 6 11 8 11 12 0 2 -7 1 -15 -2 -18z"/>
<path d="M1398 2122 c-27 -25 -32 -36 -32 -80 -1 -42 4 -56 25 -77 25 -25 25
-26 12 -98 -19 -111 -18 -118 13 -107 14 6 45 10 70 10 41 0 44 2 40 23 -3 12
-10 53 -16 91 -10 65 -10 70 11 92 33 35 38 121 9 152 -31 33 -90 30 -132 -6z"/>
<path d="M1126 2351 c-4 -5 3 -7 14 -4 23 6 26 13 6 13 -8 0 -17 -4 -20 -9z"/>
<path d="M909 2223 l-23 -38 -7 30 c-4 20 -7 3 -7 -49 0 -50 3 -74 9 -65 7 11
9 9 9 -8 0 -12 -3 -24 -8 -26 -4 -3 -6 -31 -5 -63 1 -33 -3 -64 -8 -70 -10
-13 -6 -126 6 -156 4 -10 3 -18 -3 -18 -16 0 -11 -42 7 -64 13 -15 13 -20 3
-23 -10 -4 -10 -8 -1 -19 6 -7 11 -29 11 -48 0 -22 6 -37 15 -41 22 -8 26 0
13 25 -10 19 -9 21 7 18 13 -2 17 -11 15 -31 -2 -16 1 -27 8 -27 7 0 10 7 6
15 -3 8 4 24 16 35 21 19 22 29 22 222 1 237 -2 304 -13 327 -18 35 -30 83
-24 97 11 31 -26 12 -48 -23z m-12 -85 c-3 -8 -6 -5 -6 6 -1 11 2 17 5 13 3
-3 4 -12 1 -19z"/>
<path d="M773 1612 c-8 -5 -9 -13 -3 -22 8 -13 10 -12 10 3 0 9 5 17 11 17 5
0 7 -4 4 -10 -3 -5 -1 -10 4 -10 6 0 11 4 11 9 0 5 8 12 18 14 9 3 4 5 -13 6
-16 0 -35 -3 -42 -7z"/>
<path d="M1915 1572 c-7 -7 -12 -9 -41 -11 -13 -1 -12 -5 6 -19 15 -12 22 -29
23 -55 1 -27 5 -36 14 -33 7 3 13 -2 13 -10 0 -12 -6 -15 -22 -11 -24 7 -77
-28 -56 -36 8 -3 6 -6 -4 -6 -10 -1 -18 -6 -18 -12 0 -7 -10 -9 -26 -5 -30 8
-94 -2 -94 -15 0 -4 16 -6 36 -3 l36 4 -23 -20 c-17 -13 -20 -19 -9 -20 29 0
90 21 106 38 10 9 26 18 36 18 28 2 69 26 65 38 -2 6 9 16 25 23 32 14 35 35
12 82 -16 32 -66 66 -79 53z m41 -69 c-10 -10 -19 5 -10 18 6 11 8 11 12 0 2
-7 1 -15 -2 -18z"/>
<path d="M1825 1506 c6 -29 3 -37 -19 -51 -30 -20 -26 -35 9 -35 57 0 88 86
40 108 -36 17 -37 16 -30 -22z"/>
<path d="M732 1513 c-26 -22 -14 -67 14 -56 12 4 15 3 10 -5 -4 -7 -14 -12
-22 -12 -23 0 -16 -16 12 -28 39 -18 97 3 64 23 -5 3 -10 15 -10 26 0 10 -5
19 -10 19 -7 0 -7 6 0 19 5 11 10 22 10 25 0 13 -49 5 -68 -11z m58 -63 c0 -5
-4 -10 -10 -10 -5 0 -10 5 -10 10 0 6 5 10 10 10 6 0 10 -4 10 -10z"/>
<path d="M1754 1495 c-4 -14 -3 -29 0 -32 10 -10 49 34 42 46 -13 20 -35 12
-42 -14z"/>
<path d="M1660 1495 c7 -9 15 -13 17 -11 7 7 -7 26 -19 26 -6 0 -6 -6 2 -15z"/>
<path d="M831 1447 c2 -1 13 -9 24 -17 19 -14 19 -14 6 3 -7 9 -18 17 -24 17
-6 0 -8 -1 -6 -3z"/>
<path d="M1318 1433 c7 -3 16 -2 19 1 4 3 -2 6 -13 5 -11 0 -14 -3 -6 -6z"/>
<path d="M765 1380 c-3 -5 1 -10 9 -10 9 0 16 5 16 10 0 6 -4 10 -9 10 -6 0
-13 -4 -16 -10z"/>
<path d="M910 1350 c0 -5 5 -10 10 -10 6 0 10 5 10 10 0 6 -4 10 -10 10 -5 0
-10 -4 -10 -10z"/>
<path d="M840 1340 c0 -5 11 -10 25 -10 14 0 25 5 25 10 0 6 -11 10 -25 10
-14 0 -25 -4 -25 -10z"/>
<path d="M1651 1319 c-18 -6 -31 -13 -28 -16 9 -9 97 7 97 18 0 11 -24 10 -69
-2z"/>
<path d="M1520 1290 c-11 -7 -4 -9 24 -6 21 3 41 7 44 10 10 10 -52 6 -68 -4z"/>
<path d="M1238 1273 c7 -3 16 -2 19 1 4 3 -2 6 -13 5 -11 0 -14 -3 -6 -6z"/>
<path d="M8620 2983 c-14 -3 -30 -9 -37 -15 -7 -5 -17 -7 -22 -3 -6 3 -8 0 -5
-8 5 -15 -41 -37 -77 -37 -10 0 -26 -9 -36 -19 -11 -12 -48 -25 -95 -35 -42
-9 -87 -20 -100 -25 -14 -5 -58 -12 -99 -16 -79 -7 -92 -11 -84 -26 4 -5 0 -9
-8 -9 -9 0 -17 -12 -19 -29 -9 -58 3 -476 14 -504 6 -15 8 -30 4 -34 -3 -3 -2
-11 3 -17 5 -6 18 -40 29 -76 33 -105 45 -133 74 -178 15 -24 28 -46 28 -50 0
-4 14 -23 30 -42 16 -19 30 -41 30 -49 0 -22 53 -63 62 -48 5 8 8 3 8 -12 0
-25 59 -91 82 -91 20 -1 49 -26 46 -40 -2 -6 8 -19 22 -28 13 -9 21 -11 16 -4
-4 6 -3 12 1 12 5 0 14 -9 21 -21 7 -12 16 -18 19 -15 3 3 13 -4 22 -15 21
-25 70 -36 67 -14 -3 20 -134 127 -147 120 -5 -4 -8 -3 -7 2 2 5 -22 34 -52
64 -84 84 -156 184 -209 287 -24 47 -76 199 -90 263 -11 47 -17 477 -7 486 3
3 31 7 63 9 145 10 249 39 394 107 l71 34 126 -64 c70 -35 150 -68 177 -74 28
-6 58 -15 68 -20 9 -5 57 -12 106 -16 l89 -6 -5 -221 c-2 -122 -8 -234 -13
-251 -4 -16 -8 -37 -8 -45 0 -30 -100 -282 -101 -256 -1 12 -61 -81 -61 -94 0
-24 -203 -204 -293 -259 -20 -12 -35 -26 -32 -31 3 -4 -1 -8 -8 -7 -38 1 -47
-4 -47 -27 0 -35 11 -38 50 -15 18 12 48 21 66 22 18 1 30 4 28 6 -2 2 11 12
29 21 17 10 32 22 32 29 0 6 2 10 5 9 14 -6 70 39 71 57 0 11 3 14 6 8 6 -16
63 24 63 44 0 7 11 18 24 23 14 5 33 22 43 37 10 15 20 30 24 33 3 3 14 20 24
38 11 17 22 32 25 32 4 0 17 24 31 53 13 28 27 54 32 55 4 2 7 9 7 17 0 7 11
37 25 66 43 96 56 185 56 404 1 301 3 278 -26 273 -20 -4 -23 -3 -14 8 6 7 8
17 5 22 -6 10 -42 9 -52 -1 -3 -3 -17 1 -29 9 -13 8 -37 16 -54 16 -17 1 -36
7 -42 15 -6 7 -19 13 -28 13 -9 0 -45 9 -80 20 -35 11 -66 18 -69 15 -3 -2
-21 8 -41 24 -33 26 -72 45 -96 46 -5 0 -22 13 -37 28 -27 26 -38 29 -88 20z
m-140 -1369 c0 -8 -19 -13 -24 -6 -3 5 1 9 9 9 8 0 15 -2 15 -3z"/>
<path d="M8586 2845 c-39 -30 -224 -93 -321 -111 -55 -9 -106 -22 -113 -28
-11 -8 -13 -54 -10 -231 4 -219 4 -220 37 -305 77 -202 132 -291 256 -415 58
-58 173 -152 176 -142 0 1 2 53 5 115 7 147 6 148 -121 157 -52 4 -101 12
-110 19 -12 9 -15 45 -16 214 -1 210 3 232 41 232 15 0 18 12 21 83 5 110 34
156 127 200 63 29 68 37 63 93 -1 12 3 32 8 45 8 19 10 9 11 -46 l0 -70 57
-24 c99 -44 149 -118 139 -211 -2 -19 1 -41 6 -47 6 -7 6 -13 1 -13 -5 0 -9
-9 -9 -20 0 -15 7 -20 26 -20 31 0 50 -17 50 -44 0 -16 -2 -18 -9 -7 -15 24
-24 -7 -15 -57 l8 -47 7 40 c3 24 6 -11 6 -85 0 -69 -2 -104 -4 -77 -2 26 -9
47 -14 47 -6 0 -9 -41 -8 -106 2 -138 4 -136 -129 -123 -57 5 -107 7 -112 4
-12 -7 -12 -243 1 -250 13 -8 106 46 176 103 65 51 153 140 153 153 0 4 13 22
29 40 61 66 133 244 151 371 11 77 11 335 0 378 -6 22 -15 27 -91 41 -125 24
-223 57 -326 110 l-92 48 -4 -32 -4 -32 -1 33 c-2 35 -16 40 -46 17z m321
-932 c-2 -16 -4 -3 -4 27 0 30 2 43 4 28 2 -16 2 -40 0 -55z"/>
<path d="M9312 2715 c0 -16 2 -22 5 -12 2 9 2 23 0 30 -3 6 -5 -1 -5 -18z"/>
<path d="M8580 2549 c-51 -21 -65 -48 -69 -132 l-3 -78 66 2 c36 1 69 -1 73
-4 3 -4 28 -7 55 -7 l48 0 0 58 c0 64 -21 116 -60 144 -32 23 -78 30 -110 17z"/>
<path d="M9313 2515 c0 -22 2 -30 4 -17 2 12 2 30 0 40 -3 9 -5 -1 -4 -23z"/>
<path d="M8782 2418 c-7 -7 -12 -16 -12 -21 0 -5 7 -1 16 8 9 9 14 18 12 20
-2 3 -10 -1 -16 -7z"/>
<path d="M9309 2335 c-5 -50 -4 -63 7 -53 3 3 4 28 2 54 l-3 49 -6 -50z"/>
<path d="M8474 2303 c4 -9 -4 -18 -24 -25 -17 -5 -30 -14 -30 -19 0 -5 12 -4
26 2 15 5 30 7 33 3 6 -6 -30 -39 -49 -46 -6 -2 -11 -33 -11 -70 0 -36 -7 -78
-15 -93 -14 -28 -9 -75 8 -75 5 0 6 -4 3 -10 -3 -6 1 -7 9 -4 9 3 16 12 16 19
0 7 9 15 20 18 26 7 26 -5 -1 -21 -11 -7 -18 -19 -15 -27 3 -8 0 -16 -7 -19
-7 -2 -4 -5 6 -5 10 -1 15 -5 12 -11 -4 -6 11 -10 37 -11 24 -1 55 -3 69 -4
23 -3 26 0 21 17 -4 17 -2 19 14 11 21 -10 77 -9 111 2 18 6 21 4 16 -14 -6
-24 -14 -26 -30 -10 -8 8 -13 8 -18 0 -7 -13 -1 -15 79 -30 78 -14 86 -14 86
5 0 8 4 12 10 9 6 -4 9 61 9 180 0 177 -1 186 -18 171 -26 -23 -34 -19 -16 8
15 22 14 24 -7 30 -41 11 -78 7 -85 -10 -4 -12 -8 -13 -14 -3 -11 18 -49 19
-49 1 0 -12 -4 -12 -20 3 -17 16 -20 16 -20 2 0 -26 11 -47 26 -47 7 0 18 -8
23 -17 6 -10 11 -12 11 -5 0 6 5 12 11 12 6 0 9 -7 5 -15 -3 -8 -2 -15 3 -15
4 0 6 -13 3 -30 -3 -18 0 -30 7 -30 21 0 11 -15 -19 -28 -19 -9 -30 -21 -30
-33 0 -11 3 -18 8 -16 4 3 7 -20 6 -51 l-1 -56 -49 2 c-80 5 -87 9 -81 49 5
30 4 33 -9 22 -14 -11 -15 -10 -12 11 1 14 7 23 11 20 5 -3 13 3 19 13 7 14 6
23 -7 37 -11 12 -17 35 -17 60 0 22 -3 40 -9 40 -5 0 -9 5 -9 11 0 6 7 8 16 5
9 -3 25 1 37 9 21 14 21 15 2 16 -12 0 -15 3 -7 6 10 4 10 9 -3 23 -9 10 -23
16 -31 13 -8 -3 -14 1 -14 10 0 8 -12 17 -26 20 -19 3 -24 1 -20 -10z m68 -45
c-7 -7 -12 -8 -12 -2 0 14 12 26 19 19 2 -3 -1 -11 -7 -17z"/>
<path d="M8574 2290 c0 -24 3 -25 22 -6 19 19 18 26 -4 26 -11 0 -18 -7 -18
-20z"/>
<path d="M8570 2198 c-25 -28 -26 -58 0 -86 18 -19 19 -28 12 -77 -5 -31 -6
-57 -3 -59 3 -2 24 -6 46 -7 44 -4 45 0 29 78 -5 24 -1 39 15 59 27 35 27 59
-4 89 -30 31 -68 32 -95 3z"/>
<path d="M8886 2137 c-5 -15 -6 -31 -2 -34 11 -11 18 5 14 34 l-4 28 -8 -28z"/>
<path d="M8396 2095 c-3 -8 -1 -15 4 -15 6 0 10 7 10 15 0 8 -2 15 -4 15 -2 0
-6 -7 -10 -15z"/>
<path d="M8241 1564 c-71 -16 -82 -21 -62 -33 9 -6 10 -11 3 -15 -6 -4 -15 1
-20 10 -8 14 -13 14 -50 -5 -37 -19 -72 -54 -72 -73 0 -11 61 -78 71 -78 6 0
22 -9 37 -19 39 -27 81 -35 88 -16 4 8 11 15 16 15 6 0 5 -7 -2 -15 -7 -9 -11
-17 -9 -19 10 -8 140 -38 145 -33 10 10 -6 27 -25 27 -10 0 -33 5 -50 11 -24
9 -30 14 -21 23 8 8 13 8 18 0 11 -18 97 -33 118 -21 15 8 8 12 -37 24 -78 20
-155 58 -168 82 -17 30 -1 52 58 81 48 24 64 40 40 40 -6 0 -9 7 -5 15 3 8 2
15 -2 14 -4 -1 -36 -7 -71 -15z m46 -20 c-3 -3 -12 -4 -19 -1 -8 3 -5 6 6 6
11 1 17 -2 13 -5z m-91 -171 c-7 -7 -26 7 -26 19 0 6 6 6 15 -2 9 -7 13 -15
11 -17z"/>
<path d="M8355 1550 c3 -5 11 -10 16 -10 6 0 7 5 4 10 -3 6 -11 10 -16 10 -6
0 -7 -4 -4 -10z"/>
<path d="M8891 1546 c-9 -10 -8 -15 4 -20 8 -3 21 -3 29 0 7 3 16 -2 19 -10 4
-9 11 -16 16 -16 5 0 22 -5 37 -10 44 -17 21 -22 -26 -5 -23 8 -54 15 -69 15
-26 0 -26 0 7 -20 17 -11 32 -25 32 -32 -1 -21 -25 -46 -53 -57 -32 -13 -38
-51 -8 -51 11 0 22 4 25 8 2 4 17 7 33 6 29 -1 76 18 105 43 13 12 15 20 7 34
-10 20 4 28 16 8 22 -34 -29 -82 -110 -106 -22 -6 -32 -11 -22 -12 9 -1 17 -5
17 -10 0 -5 -20 -5 -46 0 -25 5 -51 6 -57 2 -7 -4 -26 -6 -44 -4 -25 2 -33 -2
-33 -13 0 -15 13 -21 35 -16 6 1 42 2 82 1 119 -1 258 35 311 82 65 59 -16
140 -179 181 -80 20 -113 20 -128 2z"/>
<path d="M8293 1498 c-40 -10 -67 -46 -51 -65 6 -8 20 -11 32 -8 17 5 18 4 6
-4 -13 -10 -13 -12 0 -21 17 -11 53 -13 63 -4 3 4 -5 21 -18 39 -14 17 -25 36
-25 41 0 5 4 4 8 -3 6 -9 11 -7 20 7 15 24 5 29 -35 18z"/>
<path d="M8824 1474 c9 -6 16 -21 16 -32 0 -27 13 -34 45 -26 27 7 36 44 11
44 -7 0 -19 7 -26 15 -7 8 -23 14 -37 13 -21 -2 -22 -4 -9 -14z"/>
<path d="M8774 1448 c-4 -6 -3 -8 4 -4 5 3 13 0 15 -6 3 -8 6 -6 6 5 1 19 -14
23 -25 5z"/>
<path d="M8358 1383 c6 -2 18 -2 25 0 6 3 1 5 -13 5 -14 0 -19 -2 -12 -5z"/>
<path d="M8813 1364 c-14 -6 -6 -34 11 -34 6 0 12 9 13 20 2 20 -2 22 -24 14z"/>
<path d="M8747 1354 c-13 -13 -7 -24 14 -24 11 0 19 5 17 12 -5 14 -22 21 -31
12z"/>
<path d="M8461 1321 c-9 -6 -3 -10 20 -14 48 -7 56 4 14 17 -11 3 -26 2 -34
-3z"/>
<path d="M8685 1300 c-11 -17 2 -26 42 -28 l38 -2 -24 20 c-25 22 -46 26 -56
10z"/>
<path d="M8443 1270 c35 -11 144 -16 154 -7 3 4 4 7 2 7 -84 8 -178 8 -156 0z"/>
<path d="M8624 1259 c-3 -5 6 -9 20 -9 31 0 34 6 6 13 -11 3 -23 1 -26 -4z"/>
<path d="M8690 1250 c0 -5 21 -10 46 -10 27 0 43 4 39 10 -3 6 -24 10 -46 10
-21 0 -39 -4 -39 -10z"/>
<path d="M8800 1250 c0 -5 20 -10 45 -10 25 0 45 5 45 10 0 6 -20 10 -45 10
-25 0 -45 -4 -45 -10z"/>
<path d="M2561 2584 c0 -11 3 -14 6 -6 3 7 2 16 -1 19 -3 4 -6 -2 -5 -13z"/>
<path d="M3407 2903 c-12 -12 -8 -73 6 -74 6 0 32 -2 57 -4 59 -5 77 1 84 30
12 46 0 55 -73 55 -37 0 -71 -3 -74 -7z"/>
<path d="M3386 2725 c-3 -9 -6 -30 -6 -46 l0 -29 74 0 c82 0 100 11 94 57 -3
28 -4 28 -79 31 -63 2 -78 0 -83 -13z"/>
<path d="M3760 2630 c0 -5 5 -10 10 -10 6 0 10 5 10 10 0 6 -4 10 -10 10 -5 0
-10 -4 -10 -10z"/>
<path d="M4206 2902 c-3 -3 -6 -27 -6 -54 l0 -49 73 3 72 3 0 50 0 50 -67 2
c-36 1 -69 -1 -72 -5z"/>
<path d="M4375 2610 c3 -5 8 -10 11 -10 2 0 4 5 4 10 0 6 -5 10 -11 10 -5 0
-7 -4 -4 -10z"/>
<path d="M4140 2590 c0 -5 5 -10 10 -10 6 0 10 5 10 10 0 6 -4 10 -10 10 -5 0
-10 -4 -10 -10z"/>
<path d="M5605 2631 c-6 -11 9 -23 19 -14 9 9 7 23 -3 23 -6 0 -12 -4 -16 -9z"/>
<path d="M6240 2850 l0 -50 69 0 c76 0 80 4 71 60 l-5 35 -67 3 -68 3 0 -51z"/>
<path d="M6205 2610 c3 -5 10 -10 16 -10 5 0 9 5 9 10 0 6 -7 10 -16 10 -8 0
-12 -4 -9 -10z"/>
<path d="M6865 2619 c-4 -6 -5 -12 -2 -15 2 -3 7 2 10 11 7 17 1 20 -8 4z"/>
<path d="M6900 2609 c0 -11 5 -17 10 -14 6 3 10 13 10 21 0 8 -4 14 -10 14 -5
0 -10 -9 -10 -21z"/>
<path d="M2919 2255 c0 -3 -1 -26 -1 -52 -1 -46 0 -48 28 -48 20 0 32 7 43 26
13 24 13 29 -2 53 -11 16 -27 26 -42 26 -14 0 -25 -2 -26 -5z"/>
<path d="M3840 2205 c0 -54 1 -55 28 -55 36 0 52 17 52 55 0 38 -16 55 -52 55
-27 0 -28 -1 -28 -55z"/>
<path d="M5620 2206 c0 -30 4 -57 9 -60 5 -3 23 -1 40 5 27 10 31 16 31 48 0
44 -14 61 -52 61 -27 0 -28 -1 -28 -54z"/>
<path d="M2797 1793 c-14 -13 -6 -23 18 -23 16 0 25 6 25 15 0 15 -31 21 -43
8z"/>
<path d="M2795 1740 c-9 -15 4 -30 26 -30 12 0 19 7 19 20 0 21 -33 29 -45 10z"/>
<path d="M3562 1788 c-29 -29 -3 -84 35 -76 20 4 28 28 19 64 -7 26 -34 32
-54 12z"/>
<path d="M3860 1786 c-15 -19 -9 -56 12 -69 34 -22 66 41 36 71 -16 16 -33 15
-48 -2z"/>
<path d="M4010 1780 c0 -16 5 -21 23 -18 12 2 22 10 22 18 0 8 -10 16 -22 18
-18 3 -23 -2 -23 -18z"/>
<path d="M4760 1781 c0 -15 6 -21 21 -21 25 0 22 33 -4 38 -12 2 -17 -3 -17
-17z"/>
<path d="M5920 1780 c0 -22 7 -25 29 -11 16 10 6 31 -15 31 -8 0 -14 -9 -14
-20z"/>
<path d="M5920 1730 c0 -15 5 -20 18 -18 9 2 17 10 17 18 0 8 -8 16 -17 18
-13 2 -18 -3 -18 -18z"/>
<path d="M6107 1794 c-16 -16 -6 -35 16 -32 12 2 22 10 22 18 0 16 -26 25 -38
14z"/>
<path d="M6330 1780 c0 -13 7 -20 20 -20 13 0 20 7 20 20 0 13 -7 20 -20 20
-13 0 -20 -7 -20 -20z"/>
<path d="M6450 1785 c-15 -18 -5 -64 15 -72 35 -13 61 47 33 75 -16 16 -33 15
-48 -3z"/>
<path d="M6869 1779 c-13 -25 2 -69 24 -69 19 0 37 21 37 45 0 43 -41 60 -61
24z"/>
<path d="M7007 1794 c-16 -16 -6 -35 16 -32 12 2 22 10 22 18 0 16 -26 25 -38
14z"/>
<path d="M4895 1586 c-79 -35 -119 -103 -113 -190 5 -75 37 -124 104 -157 120
-57 269 39 267 171 -1 55 -19 93 -65 137 -55 53 -128 68 -193 39z m75 -88 c25
1 55 4 66 7 18 6 22 2 27 -27 3 -18 9 -47 12 -64 6 -26 2 -35 -20 -53 -15 -11
-34 -21 -41 -21 -10 0 -14 -14 -14 -50 l0 -50 -35 0 c-32 0 -35 3 -35 29 0 24
-3 28 -23 24 -14 -3 -29 3 -41 16 -21 23 -7 28 23 9 20 -12 51 -5 51 12 0 5
-9 10 -19 10 -10 0 -29 8 -41 18 -21 17 -22 23 -15 86 7 67 7 68 33 61 15 -4
47 -7 72 -7z"/>
</g>
</svg>
